G04*
G04 #@! TF.GenerationSoftware,Altium Limited,Altium Designer,19.1.8 (144)*
G04*
G04 Layer_Color=255*
%FSLAX25Y25*%
%MOIN*%
G70*
G01*
G75*
%ADD15R,0.05315X0.01575*%
%ADD16R,0.07480X0.11417*%
%ADD17R,0.03937X0.03543*%
%ADD18R,0.05118X0.05906*%
%ADD19R,0.05906X0.05118*%
%ADD47O,0.07480X0.03740*%
%ADD48O,0.08268X0.04134*%
%ADD49C,0.05906*%
%ADD50R,0.05906X0.05906*%
%ADD51R,0.05906X0.05906*%
%ADD52C,0.03875*%
%ADD53R,0.03875X0.03875*%
%ADD54C,0.06000*%
D15*
X16000Y36900D02*
D03*
Y34341D02*
D03*
Y31782D02*
D03*
Y29223D02*
D03*
Y26664D02*
D03*
D16*
X5469Y31782D02*
D03*
D17*
X184850Y28096D02*
D03*
X191150D02*
D03*
X184850Y11954D02*
D03*
X191150D02*
D03*
D18*
X90740Y120025D02*
D03*
X83260D02*
D03*
X77740Y92025D02*
D03*
X70260D02*
D03*
X77740Y133025D02*
D03*
X70260D02*
D03*
X191740Y58025D02*
D03*
X184260D02*
D03*
X38740Y25000D02*
D03*
X31260D02*
D03*
X38740Y32500D02*
D03*
X31260D02*
D03*
X191740Y48025D02*
D03*
X184260D02*
D03*
X184000Y38025D02*
D03*
X191480D02*
D03*
D19*
X40000Y161265D02*
D03*
Y153785D02*
D03*
X30000Y161265D02*
D03*
Y153785D02*
D03*
X40000Y53785D02*
D03*
Y61265D02*
D03*
X30000Y53785D02*
D03*
Y61265D02*
D03*
D47*
X5469Y15345D02*
D03*
Y48219D02*
D03*
D48*
X17279Y23022D02*
D03*
Y40542D02*
D03*
D49*
X52008Y129159D02*
D03*
Y119159D02*
D03*
Y109159D02*
D03*
Y99159D02*
D03*
Y89159D02*
D03*
X60000Y15025D02*
D03*
X70000D02*
D03*
X80000D02*
D03*
X90000D02*
D03*
X100000D02*
D03*
X110000D02*
D03*
X120000D02*
D03*
X33000Y173025D02*
D03*
X75000Y148017D02*
D03*
X85000D02*
D03*
X95000D02*
D03*
X105000D02*
D03*
X115000D02*
D03*
X125000D02*
D03*
X135000D02*
D03*
D50*
X52008Y79159D02*
D03*
D51*
X130000Y15025D02*
D03*
X65000Y148017D02*
D03*
D52*
X187461Y113194D02*
D03*
X192461Y98194D02*
D03*
X187461D02*
D03*
X192461Y103194D02*
D03*
X187461D02*
D03*
X192461Y108194D02*
D03*
X187461D02*
D03*
X192461Y113194D02*
D03*
Y118194D02*
D03*
D53*
X187461D02*
D03*
D54*
X15000Y185025D02*
D03*
X185000D02*
D03*
M02*
