G04*
G04 #@! TF.GenerationSoftware,Altium Limited,Altium Designer,19.1.8 (144)*
G04*
G04 Layer_Physical_Order=2*
G04 Layer_Color=16711680*
%FSLAX25Y25*%
%MOIN*%
G70*
G01*
G75*
%ADD11C,0.01000*%
%ADD18R,0.05118X0.05906*%
%ADD19R,0.05906X0.05118*%
%ADD37C,0.00800*%
%ADD38C,0.02000*%
%ADD40C,0.02500*%
%ADD41C,0.01500*%
%ADD46C,0.00050*%
%ADD47O,0.07480X0.03740*%
%ADD48O,0.08268X0.04134*%
%ADD49C,0.05906*%
%ADD50R,0.05906X0.05906*%
%ADD51R,0.05906X0.05906*%
%ADD52C,0.03875*%
%ADD53R,0.03875X0.03875*%
%ADD54C,0.06000*%
%ADD55C,0.03280*%
%ADD56C,0.03000*%
%ADD57C,0.02756*%
%ADD58C,0.03200*%
%ADD59R,0.07087X0.06299*%
%ADD60R,0.17717X0.09843*%
%ADD61R,0.31496X0.13780*%
%ADD62R,0.05800X0.01100*%
%ADD63R,0.01100X0.05800*%
%ADD64R,0.13800X0.13800*%
G04:AMPARAMS|DCode=65|XSize=17.72mil|YSize=72.84mil|CornerRadius=1.95mil|HoleSize=0mil|Usage=FLASHONLY|Rotation=90.000|XOffset=0mil|YOffset=0mil|HoleType=Round|Shape=RoundedRectangle|*
%AMROUNDEDRECTD65*
21,1,0.01772,0.06894,0,0,90.0*
21,1,0.01382,0.07284,0,0,90.0*
1,1,0.00390,0.03447,0.00691*
1,1,0.00390,0.03447,-0.00691*
1,1,0.00390,-0.03447,-0.00691*
1,1,0.00390,-0.03447,0.00691*
%
%ADD65ROUNDEDRECTD65*%
%ADD66R,0.07480X0.04331*%
%ADD67R,0.17717X0.07874*%
%ADD68R,0.01181X0.03150*%
%ADD69R,0.03150X0.01181*%
%ADD70R,0.14961X0.14961*%
%ADD71R,0.62000X0.04000*%
%ADD72R,0.57500X0.04000*%
%ADD73R,0.04000X0.45000*%
%ADD74R,0.04000X0.67500*%
G36*
X1723Y15345D02*
Y18771D01*
X9209D01*
Y15345D01*
X1723D01*
D02*
G37*
G36*
X1727Y44774D02*
Y48226D01*
X9209D01*
Y44774D01*
X1727D01*
D02*
G37*
D11*
X131500Y167725D02*
Y179125D01*
X160000Y38785D02*
X178600D01*
X127323Y32348D02*
X157900D01*
X78032Y115994D02*
Y123868D01*
X84000Y109525D02*
X84563Y110088D01*
X76063D02*
X80000Y114025D01*
X76063Y104182D02*
Y110088D01*
X109200Y128104D02*
X109421Y128325D01*
X117100D01*
X109200Y113025D02*
Y128104D01*
X187551Y155090D02*
Y158574D01*
X90000Y194025D02*
X110000D01*
X90000Y188765D02*
Y194025D01*
X85906Y104200D02*
X99200D01*
X113873Y108352D02*
X121300D01*
X109200Y113025D02*
X113873Y108352D01*
X141625Y107200D02*
X144825D01*
X140453Y108372D02*
X141625Y107200D01*
X140453Y108372D02*
Y113725D01*
X149579Y102446D02*
X153700D01*
X144825Y107200D02*
X149579Y102446D01*
X117100Y128325D02*
X123600Y121825D01*
X127900D01*
X100000Y15025D02*
Y23525D01*
X105000Y28525D02*
X123500D01*
X100000Y23525D02*
X105000Y28525D01*
X123500D02*
X127323Y32348D01*
X110386Y47702D02*
X112835D01*
X101437D02*
X110386D01*
X100000Y46265D02*
X101437Y47702D01*
X110000Y48088D02*
X110386Y47702D01*
X170240Y126025D02*
X175000D01*
X100800Y173125D02*
Y180485D01*
X165700Y167925D02*
Y192325D01*
X171700Y161925D02*
X184200D01*
X165700Y167925D02*
X171700Y161925D01*
X184200D02*
X187551Y158574D01*
X187461Y155000D02*
X187551Y155090D01*
X178600Y38785D02*
Y39025D01*
X164900Y125625D02*
X169360D01*
X160000Y52300D02*
X161000Y53300D01*
Y97025D02*
Y100625D01*
X159179Y102446D02*
X161000Y100625D01*
X153700Y98509D02*
X159516D01*
X161000Y97025D01*
Y53300D02*
Y97025D01*
X164000Y194025D02*
X165700Y192325D01*
X110000Y194025D02*
X164000D01*
X131500Y167725D02*
X134025Y165200D01*
X98400Y180078D02*
X99606Y181285D01*
X100000D02*
X100700Y180585D01*
X99606Y181285D02*
X100000D01*
X129200Y180485D02*
X130000Y181285D01*
X153700Y102446D02*
X159179D01*
X137378Y73725D02*
X140453Y76800D01*
X122725Y73725D02*
X137378D01*
X117785Y68785D02*
X122725Y73725D01*
X110000Y188765D02*
Y194025D01*
X84300Y188765D02*
X85000Y188065D01*
Y173100D02*
Y188065D01*
X108050Y68785D02*
X117785D01*
X140453Y81325D02*
Y84800D01*
X142053Y86400D01*
X146900Y91000D01*
Y96000D01*
X149409Y98509D01*
X153700D01*
X140000Y188765D02*
Y193925D01*
X94100Y96225D02*
X100150D01*
X100300Y96375D01*
Y103100D01*
X99200Y104200D02*
X100300Y103100D01*
X140453Y76800D02*
Y81325D01*
X160000Y46265D02*
Y52300D01*
X157900Y32348D02*
X160000Y34448D01*
Y38785D01*
Y169600D02*
Y181285D01*
X155600Y165200D02*
X160000Y169600D01*
X134025Y165200D02*
X155600D01*
X80000Y188765D02*
X84300D01*
X72018Y102106D02*
X73020Y103108D01*
X74004D01*
X74094Y103198D01*
Y104182D01*
X52008Y129159D02*
X52273Y129424D01*
X52008Y99159D02*
X54955Y102106D01*
X72018D01*
X138484Y81325D02*
Y96541D01*
X80000Y104182D02*
Y114025D01*
X55173Y115994D02*
X70157D01*
X52008Y119159D02*
X55173Y115994D01*
X55142Y126025D02*
X74094D01*
Y123868D02*
Y126025D01*
X78032Y115994D02*
X80000Y114025D01*
X84563Y110088D02*
X89843D01*
X62000Y109502D02*
X62586Y110088D01*
X62000Y105765D02*
Y109502D01*
X62586Y110088D02*
X70157D01*
X62213Y118812D02*
X63063Y117962D01*
X62213Y118812D02*
Y122071D01*
X62000Y122285D02*
X62213Y122071D01*
X63063Y117962D02*
X70157D01*
X52008Y129159D02*
X55142Y126025D01*
X54906Y112057D02*
X70157D01*
X52008Y109159D02*
X54906Y112057D01*
D18*
X86620Y96225D02*
D03*
X94100D02*
D03*
X80260Y162025D02*
D03*
X87740D02*
D03*
X86240Y135025D02*
D03*
X78760D02*
D03*
X96260D02*
D03*
X103740D02*
D03*
X131240Y132525D02*
D03*
X123760D02*
D03*
X153740D02*
D03*
X146260D02*
D03*
D19*
X120000Y188765D02*
D03*
Y181285D02*
D03*
X40000D02*
D03*
Y188765D02*
D03*
X160000D02*
D03*
Y181285D02*
D03*
X105000Y86285D02*
D03*
Y93765D02*
D03*
Y76265D02*
D03*
Y68785D02*
D03*
X113800Y116285D02*
D03*
Y123765D02*
D03*
X170000Y126265D02*
D03*
Y118785D02*
D03*
Y83785D02*
D03*
Y91265D02*
D03*
X160000Y46265D02*
D03*
Y38785D02*
D03*
X100000D02*
D03*
Y46265D02*
D03*
X61000Y98285D02*
D03*
Y105765D02*
D03*
Y129765D02*
D03*
Y122285D02*
D03*
X100000Y188765D02*
D03*
Y181285D02*
D03*
X150000Y188765D02*
D03*
Y181285D02*
D03*
X130000Y188765D02*
D03*
Y181285D02*
D03*
X110000D02*
D03*
Y188765D02*
D03*
X140000Y181285D02*
D03*
Y188765D02*
D03*
X90000Y181285D02*
D03*
Y188765D02*
D03*
X80000D02*
D03*
Y181285D02*
D03*
X50000Y188765D02*
D03*
Y181285D02*
D03*
X60000D02*
D03*
Y188765D02*
D03*
D37*
X94495Y26500D02*
X103221Y35226D01*
X61200Y26500D02*
X94495D01*
X60000Y25300D02*
X61200Y26500D01*
X121000Y81300D02*
X126673D01*
X62000Y78025D02*
X64000Y80025D01*
X52500Y28525D02*
X56975Y33000D01*
X91000D01*
X93500Y35500D01*
Y40500D01*
X95584Y42584D01*
X108300D01*
X140453Y100478D02*
X153700D01*
X108300Y42584D02*
X112835D01*
X108300D02*
X108384Y42500D01*
X47500Y20592D02*
Y28000D01*
X103400Y114025D02*
X109000Y108425D01*
X101000Y114025D02*
X103400D01*
X98000Y111025D02*
X101000Y114025D01*
X99500Y115525D02*
X104100D01*
X97122Y113147D02*
X99500Y115525D01*
X104100D02*
X110500Y109125D01*
X94500Y111025D02*
X98000D01*
X93468Y112057D02*
X94500Y111025D01*
X89842Y112057D02*
X93468D01*
X93637Y114025D02*
X94515Y113147D01*
X89843Y114025D02*
X93637D01*
X94515Y113147D02*
X97122D01*
X89843Y115994D02*
X89874Y116025D01*
X96000D01*
X92020Y120025D02*
X93520Y121525D01*
X93000Y119025D02*
X102000D01*
X92021Y118046D02*
X93000Y119025D01*
X91000Y120025D02*
X92020D01*
X89926Y118046D02*
X92021D01*
X89842Y117962D02*
X89926Y118046D01*
X107800Y129825D02*
Y138825D01*
X99500Y121525D02*
X107800Y129825D01*
X97000Y121525D02*
X99500D01*
X93520D02*
X97000D01*
X111890Y90635D02*
X121300D01*
X110500Y92025D02*
X111890Y90635D01*
X113200Y102225D02*
Y102725D01*
X110500Y100525D02*
X114484Y96541D01*
X110500Y100525D02*
Y109125D01*
X114484Y96541D02*
X121300D01*
X113953Y94572D02*
X121300D01*
X109000Y99525D02*
X113953Y94572D01*
X109000Y99525D02*
Y108425D01*
X103425Y111000D02*
X107500Y106925D01*
Y98625D02*
Y106925D01*
Y98625D02*
X113521Y92604D01*
X104500Y102525D02*
Y107525D01*
Y95525D02*
Y102525D01*
X103906Y108119D02*
X104500Y107525D01*
X123600Y185000D02*
X125000Y183600D01*
Y165025D02*
Y183600D01*
X57700Y79543D02*
X60082Y81925D01*
X90855Y81425D02*
X92455Y79825D01*
X63353Y81425D02*
X90855D01*
X62853Y81925D02*
X63353Y81425D01*
X90275Y80025D02*
X97900Y72400D01*
X64000Y80025D02*
X90275D01*
X65406Y134525D02*
X65931Y134000D01*
X65000Y134525D02*
X65406D01*
X52500Y12525D02*
Y28525D01*
X192461Y118194D02*
Y127564D01*
X188500Y131525D02*
X192461Y127564D01*
X165000Y131525D02*
X188500D01*
X142421Y118567D02*
X143000Y119146D01*
X163650Y134025D02*
X191475D01*
X150175Y120550D02*
X163650Y134025D01*
X160500Y127025D02*
X165000Y131525D01*
X160500Y120300D02*
Y127025D01*
X149225Y109025D02*
X160500Y120300D01*
X144858Y109025D02*
X149225D01*
X35740Y188765D02*
X40000D01*
X33000Y186025D02*
X35740Y188765D01*
X33000Y173025D02*
Y186025D01*
X73000Y181025D02*
X77025D01*
X69000Y177025D02*
X73000Y181025D01*
X56675Y177025D02*
X69000D01*
X55100Y178600D02*
X56675Y177025D01*
X79675Y196700D02*
X166525D01*
X64260Y181285D02*
X79675Y196700D01*
X60000Y181285D02*
X64260D01*
X50000Y175794D02*
X71669Y154125D01*
X105648Y34672D02*
X112600D01*
X90086Y19111D02*
X105648Y34672D01*
X90086Y15111D02*
Y19111D01*
X103953Y35811D02*
Y35958D01*
X103367Y35226D02*
X103953Y35811D01*
X103221Y35226D02*
X103367D01*
X105461Y37466D02*
X112835D01*
X103953Y35958D02*
X105461Y37466D01*
X141965Y40025D02*
X142065Y40125D01*
X120000Y188765D02*
X125635D01*
X142165Y37466D02*
X153500Y37500D01*
X112100Y72400D02*
X121000Y81300D01*
X110400Y81525D02*
X112600Y83725D01*
X57700Y79543D02*
Y80562D01*
X60082Y81925D02*
X62853D01*
X116200Y100325D02*
X116353Y100478D01*
X121300D01*
X113400Y102925D02*
Y104415D01*
X113200Y102725D02*
X113400Y102925D01*
Y104415D02*
X121300D01*
X102017Y111000D02*
X103425D01*
X108325Y90000D02*
X111627Y86698D01*
X98600Y90000D02*
X108325D01*
X97400Y91200D02*
X98600Y90000D01*
X111627Y86698D02*
X121300D01*
X113521Y92604D02*
X121300D01*
X100000Y146625D02*
X107800Y138825D01*
X125500Y117925D02*
X132400D01*
X134100Y119625D01*
X123860Y116285D02*
X125500Y117925D01*
X113800Y116285D02*
X123860D01*
X129600Y119425D02*
X132500Y122325D01*
X121800Y119425D02*
X129600D01*
X117460Y123765D02*
X121800Y119425D01*
X90000Y15025D02*
X90086Y15111D01*
X112600Y83725D02*
X124200D01*
X125200Y84725D02*
Y101600D01*
X124200Y83725D02*
X125200Y84725D01*
X92455Y79825D02*
X99400D01*
X101000Y81425D01*
Y84000D01*
X141000Y71994D02*
X142421Y73415D01*
Y81325D01*
X141000Y71994D02*
Y71994D01*
X128900Y69500D02*
X141275D01*
X144390Y72615D02*
Y81325D01*
X141275Y69500D02*
X144390Y72615D01*
X125000Y71525D02*
X140531D01*
X141000Y71994D01*
X132500Y122325D02*
X135900D01*
X102017Y111000D02*
Y111142D01*
X102100Y111225D01*
X73745Y137755D02*
X78781Y142792D01*
X78807D01*
X79640Y143625D01*
X80100D01*
X98000Y82900D02*
X98050Y82950D01*
X86300Y130325D02*
X102300D01*
X103133Y131158D01*
X86000Y130025D02*
X86300Y130325D01*
X124800Y124625D02*
X144900D01*
X146358Y123167D01*
X120853Y128572D02*
X124800Y124625D01*
X113800Y123765D02*
X117460D01*
X100000Y146625D02*
Y151025D01*
X105000Y148017D02*
X105215Y147802D01*
Y144144D02*
Y147802D01*
Y144144D02*
X120786Y128572D01*
X96900Y154125D02*
X100000Y151025D01*
X71669Y154125D02*
X96900D01*
X80200Y156725D02*
Y161965D01*
X80260Y162025D01*
X190700Y164825D02*
X198000Y157525D01*
X194100Y80000D02*
X198000Y83900D01*
Y157525D01*
X191475Y134025D02*
X195900Y129600D01*
X142500Y119646D02*
X143000Y119146D01*
X142421Y113725D02*
Y118567D01*
X146358Y113725D02*
Y123167D01*
X144390Y109494D02*
Y113725D01*
Y109494D02*
X144858Y109025D01*
X83937Y102263D02*
X85175Y101025D01*
X96646D02*
X97321Y101700D01*
X97700D01*
X85175Y101025D02*
X96646D01*
X112835Y40025D02*
X119000D01*
X122000Y43025D02*
Y62600D01*
X119000Y40025D02*
X122000Y43025D01*
Y62600D02*
X128900Y69500D01*
X128800Y35194D02*
Y60000D01*
X133800Y65000D01*
X119500Y32348D02*
X124500Y37348D01*
Y59800D01*
X132100Y67400D01*
X136000Y61525D02*
X143500D01*
X133400Y44684D02*
Y58925D01*
X136000Y61525D01*
X120000Y66525D02*
X125000Y71525D01*
X120000Y45612D02*
Y66525D01*
X112835Y45143D02*
X119531D01*
X120000Y45612D01*
X60000Y15025D02*
Y25300D01*
X65931Y134000D02*
X68301Y131630D01*
X75100Y128725D02*
X75100D01*
X68301Y131630D02*
X72195D01*
X75100Y128725D01*
X170000Y126265D02*
X170240Y126025D01*
X165500Y100825D02*
X168000D01*
X164700Y101625D02*
X165500Y100825D01*
X164700Y101625D02*
Y105825D01*
X161742Y106383D02*
X164142D01*
X164700Y105825D01*
X50000Y175794D02*
Y181285D01*
X144600Y185025D02*
X149625D01*
X150000Y185400D01*
X140000Y169000D02*
Y181285D01*
X168750Y170975D02*
X174900Y164825D01*
X190700D01*
X168750Y170975D02*
Y194475D01*
X94500Y181625D02*
X95500Y182625D01*
Y188297D02*
X95969Y188765D01*
X100000D01*
X95500Y182625D02*
Y188297D01*
X90000Y181285D02*
X90340Y181625D01*
X94500D01*
X97926Y186691D02*
X100000Y188765D01*
X124800Y188725D02*
X125595D01*
X125635Y188765D01*
X133800Y65000D02*
X145075D01*
X146358Y66283D02*
Y81325D01*
X145075Y65000D02*
X146358Y66283D01*
X128800Y35194D02*
X129269Y34725D01*
X141984D01*
X132900Y40025D02*
X141965D01*
X142065Y40125D02*
X142165Y40025D01*
X141984Y34725D02*
X142165Y34907D01*
X112600Y34672D02*
X112835Y34907D01*
X78032Y92893D02*
X88025Y82900D01*
X98000D01*
X78032Y92893D02*
Y104182D01*
X89625Y84400D02*
X95570D01*
X79600Y94425D02*
Y99800D01*
Y94425D02*
X89625Y84400D01*
X73745Y137755D02*
Y137755D01*
X65931Y134000D02*
X69989D01*
X73745Y137755D01*
X120786Y128572D02*
X120853D01*
X170300Y117285D02*
Y118785D01*
X170000Y117285D02*
X170300D01*
X103133Y134418D02*
X103740D01*
X83787Y132572D02*
X86240D01*
X65000Y10025D02*
X70000Y15025D01*
X55000Y10025D02*
X65000D01*
X52500Y12525D02*
X55000Y10025D01*
X169360Y125625D02*
X170000Y126265D01*
X164025Y80000D02*
X194100D01*
X162500Y81525D02*
X164025Y80000D01*
X162500Y81525D02*
Y102425D01*
X160510Y104415D02*
X162500Y102425D01*
X153700Y104415D02*
X160510D01*
X159100Y54343D02*
Y95525D01*
X158084Y96541D02*
X159100Y95525D01*
X153700Y96541D02*
X158084D01*
X120000Y175125D02*
Y181285D01*
X110200Y165325D02*
X120000Y175125D01*
X166525Y196700D02*
X168750Y194475D01*
X55100Y187819D02*
X56047Y188765D01*
X55100Y178600D02*
Y187819D01*
X76063Y123868D02*
Y127762D01*
X75100Y128725D02*
X76063Y127762D01*
X138484Y113725D02*
Y119741D01*
X135900Y122325D02*
X138484Y119741D01*
X134100Y119625D02*
X136484Y117241D01*
Y113756D02*
Y117241D01*
Y113756D02*
X136516Y113725D01*
X128642Y76700D02*
Y81325D01*
X121600Y76700D02*
X128642D01*
X150000Y188765D02*
X160000D01*
X125635D02*
X130000D01*
X85906Y123868D02*
Y126442D01*
X87363Y127900D01*
X97400D01*
X170000Y118785D02*
X170300D01*
X103740Y134418D02*
Y135025D01*
X86240Y132572D02*
Y135025D01*
X99600Y85400D02*
X101000Y84000D01*
X96570Y85400D02*
X99600D01*
X95570Y84400D02*
X96570Y85400D01*
X79600Y99800D02*
X81969Y102169D01*
Y104182D01*
X56047Y188765D02*
X60000D01*
X50000D02*
X56047D01*
X40000D02*
X50000D01*
X101100Y185000D02*
X123600D01*
X100000Y186100D02*
X101100Y185000D01*
X100000Y186100D02*
Y188765D01*
X150000Y185400D02*
Y188765D01*
X135800Y49600D02*
Y51300D01*
Y49600D02*
X137698Y47702D01*
X142165D01*
X133400Y44684D02*
X135500Y42584D01*
X142165D01*
X192461Y113194D02*
X195900D01*
Y129600D01*
X140000Y181285D02*
X150000D01*
X110000D02*
X120000D01*
X132579Y108821D02*
X133900Y107500D01*
X132579Y108821D02*
Y113725D01*
X124354Y102446D02*
X125200Y101600D01*
X121300Y102446D02*
X124354D01*
X97900Y72400D02*
X112100D01*
X126673Y81300D02*
Y81325D01*
X142165Y45143D02*
X149900D01*
X159100Y54343D01*
X112835Y32348D02*
X119500D01*
X132100Y67400D02*
X143200D01*
X150800D02*
Y84200D01*
X149800Y85200D02*
X150800Y84200D01*
X149800Y85200D02*
Y89735D01*
X150700Y90635D01*
X153700D01*
X150100Y49500D02*
Y62500D01*
X157600Y70000D01*
Y88667D01*
X153700D02*
X157600D01*
X83937Y102263D02*
Y104182D01*
X153700Y76600D02*
Y86698D01*
X97400Y91200D02*
Y91300D01*
X69700Y139125D02*
Y149725D01*
X72000Y152025D01*
X89000D01*
X90000Y151025D01*
Y137025D02*
Y151025D01*
Y137025D02*
X92000Y135025D01*
X96260D01*
X69700Y139125D02*
X69847Y138978D01*
X136516Y98509D02*
Y113725D01*
X131242Y106383D02*
X132286Y105339D01*
Y102739D02*
Y105339D01*
X121300Y106383D02*
X131242D01*
X170000Y91265D02*
Y100104D01*
X153700Y106383D02*
X161742D01*
X163721Y109946D02*
X170000D01*
X162127Y108352D02*
X163721Y109946D01*
X153700Y108352D02*
X162127D01*
X170000Y109946D02*
Y117285D01*
X81969Y130753D02*
X83787Y132572D01*
X81969Y123868D02*
Y130753D01*
X89843Y108119D02*
X103906D01*
X83937Y123868D02*
Y127962D01*
X86000Y130025D01*
X103133Y131158D02*
Y134418D01*
X80000Y123868D02*
Y128025D01*
X78760Y129265D02*
X80000Y128025D01*
X78760Y129265D02*
Y135025D01*
D38*
X137500Y100478D02*
X140453D01*
X136516Y98509D02*
X137500D01*
Y96541D02*
X138484D01*
X132286Y97525D02*
Y102739D01*
X87900Y89500D02*
Y96225D01*
X94570Y87400D02*
X105000D01*
X33811Y124025D02*
Y130836D01*
X60322Y84525D02*
X62260Y86463D01*
X59822Y84025D02*
X60322Y84525D01*
X35500Y93800D02*
X60100D01*
X60322Y84525D02*
X76674D01*
X33811D02*
X60322D01*
X94000Y29500D02*
X98897Y34397D01*
X83500Y29500D02*
X94000D01*
X98897Y34397D02*
Y37682D01*
X100000Y38785D01*
X59777Y84000D02*
X59802Y84025D01*
X60414Y135025D02*
X61000Y134439D01*
Y130765D02*
Y134439D01*
X72611Y69770D02*
X73600Y68780D01*
X70678Y71703D02*
X72611Y69770D01*
X73421Y70580D01*
X69500Y66659D02*
X72611Y69770D01*
X73421Y70580D02*
X73600D01*
X55000Y70025D02*
X67366D01*
X69500Y72159D01*
X70000Y72659D01*
X80170Y83925D02*
X83400D01*
X76940D02*
X80170D01*
X128751Y154625D02*
X130000Y153376D01*
X118355Y154625D02*
X128751D01*
X115000Y151270D02*
X118355Y154625D01*
X70000Y72659D02*
X70678Y71703D01*
X59802Y84025D02*
X59822D01*
X44475Y84000D02*
X59777D01*
X76840Y84025D02*
X76940Y83925D01*
X76674Y84525D02*
X76840Y84025D01*
X152200Y139025D02*
X175100D01*
X100700Y180585D02*
X100800Y180485D01*
X140100Y139025D02*
X152200D01*
X138000Y136925D02*
X140100Y139025D01*
X138000Y133025D02*
Y136925D01*
X153600Y133425D02*
Y137625D01*
X152200Y139025D02*
X153600Y137625D01*
X133000Y133025D02*
X138000D01*
X130000D02*
Y153376D01*
X137500Y98509D02*
Y100478D01*
Y97525D02*
Y98509D01*
X62260Y95960D02*
Y98025D01*
Y86463D02*
Y95960D01*
X132286Y97525D02*
X137500D01*
Y96541D02*
Y97525D01*
X40000Y153600D02*
Y181285D01*
Y153600D02*
X45583Y148017D01*
X65000D01*
X105000Y76265D02*
Y86285D01*
X115000Y148017D02*
Y151270D01*
X105000Y86285D02*
Y87400D01*
X93770Y86600D02*
X94570Y87400D01*
X90800Y86600D02*
X93770D01*
X87900Y89500D02*
X90800Y86600D01*
X86620Y96225D02*
X87900D01*
X82000Y97025D02*
X85820D01*
X86620Y96225D01*
X35000Y94300D02*
X35500Y93800D01*
X60100D02*
X62260Y95960D01*
X38000Y135025D02*
X60414D01*
X33811Y130836D02*
X38000Y135025D01*
D40*
X35000Y43000D02*
X59000D01*
Y46500D01*
X35000Y39625D02*
Y41142D01*
X36900Y7125D02*
X126900Y7125D01*
X35000Y9025D02*
X36900Y7125D01*
X35000Y9025D02*
Y20425D01*
X130000Y10225D02*
Y15025D01*
X126900Y7125D02*
X130000Y10225D01*
D41*
X170000Y83785D02*
X183500D01*
X61000Y130765D02*
X63240Y128525D01*
X59797Y96476D02*
X61606Y98285D01*
X69500Y72159D02*
Y77025D01*
X160000Y46265D02*
X178000D01*
X160000Y25537D02*
X174500D01*
X92300Y90025D02*
Y96225D01*
X169640Y83425D02*
X170000Y83785D01*
X183500D02*
X187461Y87745D01*
X126055Y127225D02*
X128000D01*
X109800Y19725D02*
X112100Y22025D01*
X147475D02*
X154987Y14513D01*
X112100Y22025D02*
X147475D01*
X104700Y68485D02*
X104740Y68525D01*
X105000Y68785D01*
X93560Y68525D02*
X104740D01*
X108500Y25525D02*
X109000D01*
X109012Y25537D02*
X160000D01*
X109000Y25525D02*
X109012Y25537D01*
X70000Y120525D02*
Y121804D01*
X66500Y122525D02*
X69279D01*
X70000Y121804D01*
X66500Y122525D02*
X66787Y122238D01*
X66500Y105025D02*
X70079D01*
X100000Y47525D02*
Y52025D01*
X104700Y56725D01*
Y68485D01*
X178000Y46025D02*
Y46265D01*
X187575Y150700D02*
Y155115D01*
X187500Y150625D02*
X187575Y150700D01*
X114585Y139340D02*
X122020D01*
X110400Y143525D02*
Y158025D01*
Y143525D02*
X114585Y139340D01*
X96600Y162025D02*
X100600Y158025D01*
X110400D01*
X183975D01*
X87740Y162025D02*
X96600D01*
X109800Y15925D02*
Y19725D01*
X165200Y83425D02*
X169640D01*
X128000Y127225D02*
X146260D01*
X123760Y129520D02*
X126055Y127225D01*
X127650Y126875D02*
X128000Y127225D01*
X178000Y46265D02*
Y66025D01*
X186000Y74025D01*
X197000D01*
X183975Y158025D02*
X187000Y155000D01*
X187461D01*
X122020Y139340D02*
X123760Y137600D01*
Y132525D02*
Y137600D01*
X92300Y96225D02*
X94100D01*
X123760Y129520D02*
Y132525D01*
X146260Y127225D02*
Y132525D01*
X187461Y87745D02*
Y98194D01*
X154987Y14513D02*
X160000D01*
X70079Y105025D02*
Y107525D01*
X62000Y98285D02*
X62260Y98025D01*
X61606Y98285D02*
X62000D01*
D46*
X189800Y185025D02*
G03*
X189800Y185025I-4800J0D01*
G01*
D02*
G03*
X189800Y185025I-4800J0D01*
G01*
X19800D02*
G03*
X19800Y185025I-4800J0D01*
G01*
D02*
G03*
X19800Y185025I-4800J0D01*
G01*
D47*
X5469Y15345D02*
D03*
Y48219D02*
D03*
D48*
X17279Y23022D02*
D03*
Y40542D02*
D03*
D49*
X52008Y129159D02*
D03*
Y119159D02*
D03*
Y109159D02*
D03*
Y99159D02*
D03*
Y89159D02*
D03*
X60000Y15025D02*
D03*
X70000D02*
D03*
X80000D02*
D03*
X90000D02*
D03*
X100000D02*
D03*
X110000D02*
D03*
X120000D02*
D03*
X33000Y173025D02*
D03*
X75000Y148017D02*
D03*
X85000D02*
D03*
X95000D02*
D03*
X105000D02*
D03*
X115000D02*
D03*
X125000D02*
D03*
X135000D02*
D03*
D50*
X52008Y79159D02*
D03*
D51*
X130000Y15025D02*
D03*
X65000Y148017D02*
D03*
D52*
X187461Y113194D02*
D03*
X192461Y98194D02*
D03*
X187461D02*
D03*
X192461Y103194D02*
D03*
X187461D02*
D03*
X192461Y108194D02*
D03*
X187461D02*
D03*
X192461Y113194D02*
D03*
Y118194D02*
D03*
D53*
X187461D02*
D03*
D54*
X15000Y185025D02*
D03*
X185000D02*
D03*
D55*
X83500Y29500D02*
D03*
D56*
X69500Y77025D02*
D03*
X55000Y70025D02*
D03*
X66500Y122525D02*
D03*
Y105025D02*
D03*
X80170Y83925D02*
D03*
X83400D02*
D03*
X76840Y84025D02*
D03*
X69700Y139125D02*
D03*
X65500Y139025D02*
D03*
X77000Y109525D02*
D03*
X84000D02*
D03*
X77000Y118025D02*
D03*
X84000Y114025D02*
D03*
X77000D02*
D03*
D57*
X153500Y37500D02*
D03*
X47500Y28000D02*
D03*
X96000Y116025D02*
D03*
X97000Y121525D02*
D03*
X110500Y92025D02*
D03*
X113200Y102225D02*
D03*
X104500Y102525D02*
D03*
X125000Y165025D02*
D03*
X62000Y78025D02*
D03*
X65000Y134525D02*
D03*
X102000Y119025D02*
D03*
X47500Y20592D02*
D03*
X57700Y79543D02*
D03*
X116200Y100325D02*
D03*
X110400Y81525D02*
D03*
X102017Y111000D02*
D03*
X80100Y143625D02*
D03*
X98050Y82950D02*
D03*
X127900Y121825D02*
D03*
X80200Y156725D02*
D03*
X142500Y119646D02*
D03*
X150175Y120550D02*
D03*
X143500Y61525D02*
D03*
X144600Y185025D02*
D03*
X140000Y169000D02*
D03*
X100800Y173125D02*
D03*
X124800Y188725D02*
D03*
X132900Y40025D02*
D03*
X178600Y39025D02*
D03*
X164900Y125625D02*
D03*
X142600Y100425D02*
D03*
X85000Y173100D02*
D03*
X131575D02*
D03*
X110200Y165325D02*
D03*
X128000Y127225D02*
D03*
X97400Y127900D02*
D03*
X92300Y89600D02*
D03*
X135800Y51300D02*
D03*
X133900Y107500D02*
D03*
X143200Y67400D02*
D03*
X150800D02*
D03*
X150100Y49500D02*
D03*
X97700Y101700D02*
D03*
X153700Y76600D02*
D03*
X121600Y76700D02*
D03*
X97400Y91300D02*
D03*
X82000Y97025D02*
D03*
D58*
X42000Y94025D02*
D03*
X92500Y68525D02*
D03*
X108500Y25525D02*
D03*
X175000Y126025D02*
D03*
X138000Y133025D02*
D03*
X134100Y119625D02*
D03*
X175100Y139025D02*
D03*
X197000Y74025D02*
D03*
X178000Y46025D02*
D03*
X174500Y25425D02*
D03*
X187575Y155115D02*
D03*
X187500Y150625D02*
D03*
X174900Y83625D02*
D03*
X165200Y83425D02*
D03*
D59*
X160000Y25537D02*
D03*
Y14513D02*
D03*
D60*
X35000Y41142D02*
D03*
Y18898D02*
D03*
D61*
X73600Y66929D02*
D03*
Y44488D02*
D03*
D62*
X153700Y108352D02*
D03*
Y106383D02*
D03*
Y104415D02*
D03*
Y102446D02*
D03*
Y100478D02*
D03*
Y98509D02*
D03*
Y96541D02*
D03*
Y94572D02*
D03*
Y92604D02*
D03*
Y90635D02*
D03*
Y88667D02*
D03*
Y86698D02*
D03*
X121300D02*
D03*
Y88667D02*
D03*
Y90635D02*
D03*
Y92604D02*
D03*
Y94572D02*
D03*
Y96541D02*
D03*
Y98509D02*
D03*
Y100478D02*
D03*
Y102446D02*
D03*
Y104415D02*
D03*
Y106383D02*
D03*
Y108352D02*
D03*
D63*
X148327Y81325D02*
D03*
X146358D02*
D03*
X144390D02*
D03*
X142421D02*
D03*
X140453D02*
D03*
X138484D02*
D03*
X136516D02*
D03*
X134547D02*
D03*
X132579D02*
D03*
X130610D02*
D03*
X128642D02*
D03*
X126673D02*
D03*
Y113725D02*
D03*
X128642D02*
D03*
X130610D02*
D03*
X132579D02*
D03*
X134547D02*
D03*
X136516D02*
D03*
X138484D02*
D03*
X140453D02*
D03*
X142421D02*
D03*
X144390D02*
D03*
X146358D02*
D03*
X148327D02*
D03*
D64*
X137500Y97525D02*
D03*
D65*
X142165Y47702D02*
D03*
Y45143D02*
D03*
Y42584D02*
D03*
Y40025D02*
D03*
Y37466D02*
D03*
Y34907D02*
D03*
Y32348D02*
D03*
X112835Y47702D02*
D03*
Y45143D02*
D03*
Y42584D02*
D03*
Y40025D02*
D03*
Y37466D02*
D03*
Y34907D02*
D03*
Y32348D02*
D03*
D66*
X170000Y109946D02*
D03*
Y100104D02*
D03*
D67*
X10236Y84025D02*
D03*
X35976D02*
D03*
X10236Y124025D02*
D03*
X35976D02*
D03*
D68*
X74094Y123867D02*
D03*
X76063D02*
D03*
X78031D02*
D03*
X80000D02*
D03*
X81968D02*
D03*
X83937D02*
D03*
X85905D02*
D03*
Y104183D02*
D03*
X83937D02*
D03*
X81968D02*
D03*
X80000D02*
D03*
X78031D02*
D03*
X76063D02*
D03*
X74094D02*
D03*
D69*
X89842Y119931D02*
D03*
Y117962D02*
D03*
Y115993D02*
D03*
Y114025D02*
D03*
Y112057D02*
D03*
Y110088D02*
D03*
Y108119D02*
D03*
X70157D02*
D03*
Y110088D02*
D03*
Y112057D02*
D03*
Y114025D02*
D03*
Y115993D02*
D03*
Y117962D02*
D03*
Y119931D02*
D03*
D70*
X80000Y114025D02*
D03*
D71*
X40900Y139325D02*
D03*
D72*
X38850Y70025D02*
D03*
D73*
X34500Y105025D02*
D03*
D74*
X12000Y103775D02*
D03*
M02*
