G04*
G04 #@! TF.GenerationSoftware,Altium Limited,Altium Designer,19.1.8 (144)*
G04*
G04 Layer_Color=32768*
%FSLAX25Y25*%
%MOIN*%
G70*
G01*
G75*
%ADD14C,0.00600*%
%ADD88C,0.00394*%
%ADD90C,0.00197*%
G36*
X117400Y77425D02*
X157600D01*
Y117625D01*
X117400D01*
Y77425D01*
D02*
G37*
D14*
X157600D02*
Y117625D01*
X117400D02*
X157600D01*
X117400Y77425D02*
Y117625D01*
Y77425D02*
X157600D01*
D88*
X55687Y43612D02*
Y79438D01*
X91513D01*
Y43612D02*
Y79438D01*
X55687Y43612D02*
X91513D01*
X125531Y40025D02*
X129469D01*
X127500Y38056D02*
Y41993D01*
X168032Y105025D02*
X171969D01*
X170000Y103056D02*
Y106993D01*
D90*
X10193Y47530D02*
X18461D01*
X10193D02*
Y51073D01*
X744D02*
X10193D01*
X744Y47530D02*
Y51073D01*
X-3980Y47530D02*
X744D01*
X-3980Y16034D02*
Y47530D01*
Y16034D02*
X744D01*
Y12491D02*
Y16034D01*
Y12491D02*
X10193D01*
Y16034D01*
X18461D01*
Y19971D01*
X22398D01*
Y26270D01*
X19642D02*
X22398D01*
X19642D02*
Y37294D01*
X22398D01*
Y43593D01*
X18461D02*
X22398D01*
X18461D02*
Y47530D01*
X147776Y25261D02*
Y54789D01*
X107224Y25261D02*
Y54789D01*
X147776D01*
X107224Y25261D02*
X147776D01*
X174134Y97545D02*
Y112505D01*
X165866Y97545D02*
X174134D01*
X165866D02*
Y112505D01*
X174134D01*
X-5756Y63749D02*
X47000D01*
Y104301D01*
X-5756D02*
X47000D01*
X-5756Y63749D02*
Y104301D01*
X178543Y81915D02*
Y134474D01*
Y81915D02*
X201575D01*
Y134474D01*
X178543D02*
X201575D01*
X67697Y101722D02*
Y126328D01*
Y101722D02*
X92303D01*
Y126328D01*
X67697D02*
X92303D01*
X-5756Y103749D02*
X47000D01*
Y144301D01*
X-5756D02*
X47000D01*
X-5756Y103749D02*
Y144301D01*
M02*
