G04*
G04 #@! TF.GenerationSoftware,Altium Limited,Altium Designer,19.1.8 (144)*
G04*
G04 Layer_Color=8388736*
%FSLAX25Y25*%
%MOIN*%
G70*
G01*
G75*
%ADD20R,0.06115X0.02375*%
%ADD21R,0.08280X0.12217*%
%ADD22R,0.04737X0.04343*%
%ADD23R,0.05918X0.06706*%
%ADD24R,0.06706X0.05918*%
%ADD25O,0.08280X0.04540*%
%ADD26O,0.09068X0.04934*%
%ADD27C,0.06706*%
%ADD28R,0.06706X0.06706*%
%ADD29R,0.06706X0.06706*%
%ADD30C,0.04675*%
%ADD31R,0.04675X0.04675*%
%ADD32C,0.06800*%
%ADD33C,0.04080*%
%ADD34C,0.03800*%
%ADD35C,0.03556*%
%ADD36C,0.04000*%
G36*
X1328Y15345D02*
Y19162D01*
X9602D01*
Y15345D01*
X1328D01*
D02*
G37*
G36*
X1335Y44380D02*
Y48219D01*
X9602D01*
Y44380D01*
X1335D01*
D02*
G37*
D20*
X16000Y36900D02*
D03*
Y34341D02*
D03*
Y31782D02*
D03*
Y29223D02*
D03*
Y26664D02*
D03*
D21*
X5469Y31782D02*
D03*
D22*
X184850Y28096D02*
D03*
X191150D02*
D03*
X184850Y11954D02*
D03*
X191150D02*
D03*
D23*
X90740Y120025D02*
D03*
X83260D02*
D03*
X77740Y92025D02*
D03*
X70260D02*
D03*
X77740Y133025D02*
D03*
X70260D02*
D03*
X191740Y58025D02*
D03*
X184260D02*
D03*
X38740Y25000D02*
D03*
X31260D02*
D03*
X38740Y32500D02*
D03*
X31260D02*
D03*
X191740Y48025D02*
D03*
X184260D02*
D03*
X184000Y38025D02*
D03*
X191480D02*
D03*
D24*
X40000Y161265D02*
D03*
Y153785D02*
D03*
X30000Y161265D02*
D03*
Y153785D02*
D03*
X40000Y53785D02*
D03*
Y61265D02*
D03*
X30000Y53785D02*
D03*
Y61265D02*
D03*
D25*
X5469Y15345D02*
D03*
Y48219D02*
D03*
D26*
X17279Y23022D02*
D03*
Y40542D02*
D03*
D27*
X52008Y129159D02*
D03*
Y119159D02*
D03*
Y109159D02*
D03*
Y99159D02*
D03*
Y89159D02*
D03*
X60000Y15025D02*
D03*
X70000D02*
D03*
X80000D02*
D03*
X90000D02*
D03*
X100000D02*
D03*
X110000D02*
D03*
X120000D02*
D03*
X33000Y173025D02*
D03*
X75000Y148017D02*
D03*
X85000D02*
D03*
X95000D02*
D03*
X105000D02*
D03*
X115000D02*
D03*
X125000D02*
D03*
X135000D02*
D03*
D28*
X52008Y79159D02*
D03*
D29*
X130000Y15025D02*
D03*
X65000Y148017D02*
D03*
D30*
X187461Y113194D02*
D03*
X192461Y98194D02*
D03*
X187461D02*
D03*
X192461Y103194D02*
D03*
X187461D02*
D03*
X192461Y108194D02*
D03*
X187461D02*
D03*
X192461Y113194D02*
D03*
Y118194D02*
D03*
D31*
X187461D02*
D03*
D32*
X15000Y185025D02*
D03*
X185000D02*
D03*
D33*
X83500Y29500D02*
D03*
D34*
X69500Y77025D02*
D03*
X55000Y70025D02*
D03*
X66500Y122525D02*
D03*
Y105025D02*
D03*
X80170Y83925D02*
D03*
X83400D02*
D03*
X76840Y84025D02*
D03*
X69700Y139125D02*
D03*
X65500Y139025D02*
D03*
X77000Y109525D02*
D03*
X84000D02*
D03*
X77000Y118025D02*
D03*
X84000Y114025D02*
D03*
X77000D02*
D03*
D35*
X153500Y37500D02*
D03*
X47500Y28000D02*
D03*
X96000Y116025D02*
D03*
X97000Y121525D02*
D03*
X110500Y92025D02*
D03*
X113200Y102225D02*
D03*
X104500Y102525D02*
D03*
X125000Y165025D02*
D03*
X62000Y78025D02*
D03*
X65000Y134525D02*
D03*
X102000Y119025D02*
D03*
X47500Y20592D02*
D03*
X57700Y79543D02*
D03*
X116200Y100325D02*
D03*
X110400Y81525D02*
D03*
X102017Y111000D02*
D03*
X80100Y143625D02*
D03*
X98050Y82950D02*
D03*
X127900Y121825D02*
D03*
X80200Y156725D02*
D03*
X142500Y119646D02*
D03*
X150175Y120550D02*
D03*
X143500Y61525D02*
D03*
X144600Y185025D02*
D03*
X140000Y169000D02*
D03*
X100800Y173125D02*
D03*
X124800Y188725D02*
D03*
X132900Y40025D02*
D03*
X178600Y39025D02*
D03*
X164900Y125625D02*
D03*
X142600Y100425D02*
D03*
X85000Y173100D02*
D03*
X131575D02*
D03*
X110200Y165325D02*
D03*
X128000Y127225D02*
D03*
X97400Y127900D02*
D03*
X92300Y89600D02*
D03*
X135800Y51300D02*
D03*
X133900Y107500D02*
D03*
X143200Y67400D02*
D03*
X150800D02*
D03*
X150100Y49500D02*
D03*
X97700Y101700D02*
D03*
X153700Y76600D02*
D03*
X121600Y76700D02*
D03*
X97400Y91300D02*
D03*
X82000Y97025D02*
D03*
D36*
X42000Y94025D02*
D03*
X92500Y68525D02*
D03*
X108500Y25525D02*
D03*
X175000Y126025D02*
D03*
X138000Y133025D02*
D03*
X134100Y119625D02*
D03*
X175100Y139025D02*
D03*
X197000Y74025D02*
D03*
X178000Y46025D02*
D03*
X174500Y25425D02*
D03*
X187575Y155115D02*
D03*
X187500Y150625D02*
D03*
X174900Y83625D02*
D03*
X165200Y83425D02*
D03*
M02*
