G04*
G04 #@! TF.GenerationSoftware,Altium Limited,Altium Designer,19.1.8 (144)*
G04*
G04 Layer_Color=8421504*
%FSLAX25Y25*%
%MOIN*%
G70*
G01*
G75*
%ADD15R,0.05315X0.01575*%
%ADD16R,0.07480X0.11417*%
%ADD17R,0.03937X0.03543*%
%ADD18R,0.05118X0.05906*%
%ADD19R,0.05906X0.05118*%
G36*
X1721Y15345D02*
Y18765D01*
X9209D01*
Y15345D01*
X1721D01*
D02*
G37*
G36*
X1726Y44774D02*
Y48229D01*
X9209D01*
Y44774D01*
X1726D01*
D02*
G37*
D15*
X16000Y36900D02*
D03*
Y34341D02*
D03*
Y31782D02*
D03*
Y29223D02*
D03*
Y26664D02*
D03*
D16*
X5469Y31782D02*
D03*
D17*
X184850Y28096D02*
D03*
X191150D02*
D03*
X184850Y11954D02*
D03*
X191150D02*
D03*
D18*
X90740Y120025D02*
D03*
X83260D02*
D03*
X77740Y92025D02*
D03*
X70260D02*
D03*
X77740Y133025D02*
D03*
X70260D02*
D03*
X191740Y58025D02*
D03*
X184260D02*
D03*
X38740Y25000D02*
D03*
X31260D02*
D03*
X38740Y32500D02*
D03*
X31260D02*
D03*
X191740Y48025D02*
D03*
X184260D02*
D03*
X184000Y38025D02*
D03*
X191480D02*
D03*
D19*
X40000Y161265D02*
D03*
Y153785D02*
D03*
X30000Y161265D02*
D03*
Y153785D02*
D03*
X40000Y53785D02*
D03*
Y61265D02*
D03*
X30000Y53785D02*
D03*
Y61265D02*
D03*
M02*
