G04*
G04 #@! TF.GenerationSoftware,Altium Limited,Altium Designer,19.1.8 (144)*
G04*
G04 Layer_Physical_Order=1*
G04 Layer_Color=255*
%FSLAX25Y25*%
%MOIN*%
G70*
G01*
G75*
%ADD11C,0.01000*%
%ADD15R,0.05315X0.01575*%
%ADD16R,0.07480X0.11417*%
%ADD17R,0.03937X0.03543*%
%ADD18R,0.05118X0.05906*%
%ADD19R,0.05906X0.05118*%
%ADD37C,0.00800*%
%ADD38C,0.02000*%
%ADD39C,0.03000*%
%ADD40C,0.02500*%
%ADD41C,0.01500*%
%ADD42R,0.04000X0.22000*%
%ADD43R,0.09700X0.04000*%
%ADD44R,0.04500X0.72500*%
%ADD45R,0.11000X0.88500*%
%ADD46C,0.00050*%
%ADD47O,0.07480X0.03740*%
%ADD48O,0.08268X0.04134*%
%ADD49C,0.05906*%
%ADD50R,0.05906X0.05906*%
%ADD51R,0.05906X0.05906*%
%ADD52C,0.03875*%
%ADD53R,0.03875X0.03875*%
%ADD54C,0.06000*%
%ADD55C,0.03280*%
%ADD56C,0.03000*%
%ADD57C,0.02756*%
%ADD58C,0.03200*%
G36*
X1728Y15345D02*
Y18788D01*
X9209D01*
Y15345D01*
X1728D01*
D02*
G37*
G36*
X1726Y44774D02*
Y48228D01*
X9209D01*
Y44774D01*
X1726D01*
D02*
G37*
D11*
X184850Y11954D02*
Y28096D01*
X127900Y121825D02*
Y127125D01*
X183800Y38225D02*
X184000Y38025D01*
X178600Y39025D02*
X181825D01*
X38100Y63165D02*
X40000Y61265D01*
X38100Y95625D02*
X41634Y99159D01*
X38100Y63165D02*
Y95625D01*
X164900Y125625D02*
X165000Y98225D01*
Y83625D02*
Y98225D01*
X162800Y100425D02*
X165000Y98225D01*
X142600Y100425D02*
X162800D01*
X184000Y33450D02*
Y38025D01*
Y33450D02*
X184850Y32600D01*
Y28096D02*
Y32600D01*
X187461Y108194D02*
Y113194D01*
X41447Y152732D02*
X42500Y153785D01*
X51142Y130025D02*
X52008Y129159D01*
X40000Y135025D02*
X45866Y129159D01*
X38366Y119159D02*
X52008D01*
X30000Y127525D02*
X38366Y119159D01*
X30000Y127525D02*
Y153785D01*
X34134Y109159D02*
X52008D01*
X30000Y105025D02*
X34134Y109159D01*
X30000Y61265D02*
Y105025D01*
X40000Y135025D02*
Y152525D01*
X30000Y60025D02*
Y61265D01*
X41634Y99159D02*
X52008D01*
X45866Y129159D02*
X52008D01*
D15*
X16000Y36900D02*
D03*
Y34341D02*
D03*
Y31782D02*
D03*
Y29223D02*
D03*
Y26664D02*
D03*
D16*
X5469Y31782D02*
D03*
D17*
X184850Y28096D02*
D03*
X191150D02*
D03*
X184850Y11954D02*
D03*
X191150D02*
D03*
D18*
X90740Y120025D02*
D03*
X83260D02*
D03*
X77740Y92025D02*
D03*
X70260D02*
D03*
X77740Y133025D02*
D03*
X70260D02*
D03*
X191740Y58025D02*
D03*
X184260D02*
D03*
X38740Y25000D02*
D03*
X31260D02*
D03*
X38740Y32500D02*
D03*
X31260D02*
D03*
X191740Y48025D02*
D03*
X184260D02*
D03*
X184000Y38025D02*
D03*
X191480D02*
D03*
D19*
X40000Y161265D02*
D03*
Y153785D02*
D03*
X30000Y161265D02*
D03*
Y153785D02*
D03*
X40000Y53785D02*
D03*
Y61265D02*
D03*
X30000Y53785D02*
D03*
Y61265D02*
D03*
D37*
X47500Y20592D02*
X83408D01*
X85500Y18500D01*
Y12000D02*
Y18500D01*
X80133Y142758D02*
Y156658D01*
X148500Y5000D02*
X153500Y10000D01*
Y37500D01*
X46958Y31025D02*
X47500Y30483D01*
Y28000D02*
Y30483D01*
X40215Y31025D02*
X46958D01*
X38740Y25000D02*
X91500D01*
X191150Y11954D02*
Y28096D01*
X191740Y58025D02*
Y98194D01*
X191150Y28096D02*
Y34931D01*
X93000Y111025D02*
X96000Y114025D01*
Y116025D01*
X90740Y120025D02*
X92240Y121525D01*
X97000D01*
Y121294D02*
Y121525D01*
X96627Y79125D02*
X101525D01*
X95000Y80752D02*
X96627Y79125D01*
X95000Y80752D02*
Y91100D01*
X101525Y79125D02*
X110500Y88100D01*
Y92025D01*
X113200Y29125D02*
Y102225D01*
X113110Y102315D02*
X113200Y102225D01*
X106700Y104725D02*
X115731D01*
X104500Y102525D02*
X106700Y104725D01*
X105000Y152525D02*
X117500Y165025D01*
X105000Y148017D02*
Y152525D01*
X117500Y165025D02*
X125000D01*
X57400Y79010D02*
Y163325D01*
X62000Y78025D02*
Y127825D01*
X61900Y127925D02*
X62000Y127825D01*
X61900Y127925D02*
X65000Y131025D01*
Y134525D01*
X110400Y28025D02*
X114000Y24425D01*
Y12847D02*
Y24425D01*
X112053Y10900D02*
X114000Y12847D01*
X116000Y11825D02*
Y26325D01*
X112200Y8025D02*
X116000Y11825D01*
X113200Y29125D02*
X116000Y26325D01*
X89475Y8025D02*
X112200D01*
X85500Y12000D02*
X89475Y8025D01*
X38740Y32500D02*
X40215Y31025D01*
X95300Y110325D02*
X102000Y117025D01*
Y119025D01*
X93000Y93100D02*
Y111025D01*
Y93100D02*
X95000Y91100D01*
X95300Y93400D02*
Y110325D01*
X119000Y116500D02*
Y150400D01*
X116625Y114125D02*
X119000Y116500D01*
X105141Y114125D02*
X116625D01*
X102125Y108625D02*
X124875D01*
X97700Y104200D02*
X102125Y108625D01*
X97700Y101700D02*
Y104200D01*
X124700Y46800D02*
Y104800D01*
X122375Y107125D02*
X124700Y104800D01*
X104469Y107125D02*
X122375D01*
X127800Y49700D02*
Y105700D01*
X124875Y108625D02*
X127800Y105700D01*
X130175Y47325D02*
X137500D01*
X127800Y49700D02*
X130175Y47325D01*
X128000Y43500D02*
X147575D01*
X124700Y46800D02*
X128000Y43500D01*
X123475Y40025D02*
X132900D01*
X121600Y41900D02*
X123475Y40025D01*
X121600Y41900D02*
Y76700D01*
X169700Y69200D02*
X169700Y166725D01*
X162025Y61525D02*
X169700Y69200D01*
X143500Y61525D02*
X162025D01*
X191480Y38025D02*
Y47790D01*
X82500Y5000D02*
X148500D01*
X80000Y7500D02*
X82500Y5000D01*
X80000Y7500D02*
Y15025D01*
X91500Y25000D02*
X95500Y21000D01*
Y12000D02*
Y21000D01*
Y12000D02*
X96600Y10900D01*
X112053D01*
X25000Y25000D02*
X31260D01*
X20777Y29223D02*
X25000Y25000D01*
X16000Y29223D02*
X20777D01*
X30542Y31782D02*
X31260Y32500D01*
X16000Y31782D02*
X30542D01*
X57700Y78710D02*
Y79543D01*
X57400Y79010D02*
X57700Y78710D01*
X47700Y173025D02*
X57400Y163325D01*
X115731Y104725D02*
X116200Y104256D01*
Y100325D02*
Y104256D01*
X101200Y103856D02*
X104469Y107125D01*
X110400Y28025D02*
Y81525D01*
X101200Y86100D02*
Y103856D01*
X98050Y82950D02*
X101200Y86100D01*
X147950Y118325D02*
X150175Y120550D01*
X144111Y118325D02*
X147950D01*
X142790Y119646D02*
X144111Y118325D01*
X141775Y64800D02*
X153175D01*
X140600Y63625D02*
X141775Y64800D01*
X140600Y59225D02*
Y63625D01*
X141800Y58025D02*
X184260D01*
X140600Y59225D02*
X141800Y58025D01*
X138200Y68325D02*
X146300Y76425D01*
X138200Y48025D02*
Y68325D01*
X137500Y47325D02*
X138200Y48025D01*
X102017Y111000D02*
X105141Y114125D01*
X153175Y64800D02*
X157300Y68925D01*
X133900Y103200D02*
X157300Y79800D01*
Y68925D02*
Y79800D01*
X80100Y142792D02*
Y143625D01*
Y142792D02*
X80133Y142758D01*
Y156658D02*
X80200Y156725D01*
X80133Y156792D02*
X80200Y156725D01*
X142500Y119646D02*
X142790D01*
X131000Y111625D02*
X144600Y125225D01*
X131000Y56100D02*
Y111625D01*
X33000Y173025D02*
X47700D01*
X153525Y76425D02*
X153700Y76600D01*
X146300Y76425D02*
X153525D01*
X144600Y125225D02*
Y185025D01*
X77575Y169000D02*
X140000D01*
X75000Y166425D02*
X77575Y169000D01*
X124800Y188725D02*
X147550D01*
X147625Y188800D01*
X191480Y47790D02*
X191740Y48025D01*
X165000Y83625D02*
X165200Y83425D01*
X147625Y188800D02*
X169700Y166725D01*
X95000Y153125D02*
X107200Y165325D01*
X110200D01*
X131000Y56100D02*
X135800Y51300D01*
X95000Y148017D02*
Y153125D01*
X75000Y148017D02*
Y166425D01*
X150100Y46025D02*
Y49500D01*
X147575Y43500D02*
X150100Y46025D01*
X97400Y127900D02*
X107700D01*
X110900Y131100D01*
Y150300D01*
X112700Y152100D01*
X117300D01*
X119000Y150400D01*
X191740Y98194D02*
X192461D01*
X191740Y48025D02*
Y58025D01*
X51142Y130025D02*
Y147490D01*
X45900Y152732D02*
X51142Y147490D01*
X41447Y152732D02*
X45900D01*
X40000Y152525D02*
Y153785D01*
X133900Y103200D02*
Y107500D01*
X143200Y67400D02*
X150800D01*
X95300Y93400D02*
X97400Y91300D01*
D38*
X175100Y117194D02*
Y139025D01*
X85000Y173100D02*
X131575D01*
X84000Y118025D02*
Y121600D01*
X83000Y108525D02*
X83500Y108025D01*
X77000Y118025D02*
Y140500D01*
Y66025D02*
Y109525D01*
X83500Y29500D02*
Y108025D01*
X94525Y29500D02*
X100000Y24025D01*
X83500Y29500D02*
X94525D01*
X87300Y124900D02*
X112375D01*
X77000Y57600D02*
Y58525D01*
X76000Y57525D02*
X77000Y58525D01*
X65000Y148017D02*
Y173100D01*
Y144700D02*
Y148017D01*
X6460Y51460D02*
X9025Y54025D01*
X6460Y49211D02*
Y51460D01*
X9025Y54025D02*
X14000D01*
X27500D01*
X100000Y15025D02*
Y24025D01*
X83000Y108525D02*
X84000Y109525D01*
X115000Y127525D02*
Y148017D01*
X112375Y124900D02*
X115000Y127525D01*
X84000Y121600D02*
X87300Y124900D01*
X175100Y83825D02*
Y117194D01*
X174900Y83625D02*
X175100Y83825D01*
Y117194D02*
X175200Y117094D01*
X179100Y113194D01*
X187461D01*
X65000Y173100D02*
X85000D01*
X134100Y119625D02*
X138000Y123525D01*
Y133025D01*
X28760Y161265D02*
X30000D01*
X28200Y161825D02*
X28760Y161265D01*
X28200Y161825D02*
Y175800D01*
X65000Y173100D02*
Y176000D01*
X84000Y109525D02*
Y114025D01*
X77000Y109525D02*
Y114025D01*
X61300Y179700D02*
X65000Y176000D01*
X32100Y179700D02*
X61300D01*
X28200Y175800D02*
X32100Y179700D01*
X65000Y144700D02*
X66700Y143000D01*
X74500D01*
X77000Y140500D01*
X85000Y147025D02*
Y148017D01*
Y140025D02*
Y147025D01*
D39*
X31000Y54025D02*
X75000D01*
D40*
X46500Y54000D02*
Y65197D01*
X42000Y69697D02*
Y94025D01*
Y69697D02*
X46500Y65197D01*
X55000Y70025D02*
X68500D01*
D41*
X92300Y36225D02*
Y89600D01*
X17279Y36937D02*
Y40542D01*
X17242Y36900D02*
X17279Y36937D01*
X16000Y36900D02*
X17242D01*
X5469Y48219D02*
X14281D01*
X17279Y45221D01*
Y40542D02*
Y45221D01*
X15345Y15345D02*
X17279Y17279D01*
Y23022D01*
X5469Y15345D02*
X15345D01*
X5469D02*
Y31782D01*
Y48219D01*
X6460Y49211D01*
X187461Y118194D02*
X187500Y118234D01*
Y150625D01*
X187700Y123525D02*
X193175D01*
X127900Y127125D02*
X128000Y127225D01*
X103000Y25525D02*
X108500D01*
X92300Y36225D02*
X103000Y25525D01*
X66500Y122525D02*
X69500D01*
X178000Y46025D02*
X180000Y48025D01*
X174500Y42525D02*
X178000Y46025D01*
X187461Y150664D02*
X187500Y150625D01*
X187461Y155000D02*
X187575Y155115D01*
X187461Y150664D02*
Y155000D01*
X174500Y25425D02*
Y42525D01*
X193175Y123525D02*
X197000Y119700D01*
X180000Y48025D02*
X184260D01*
X197000Y74025D02*
Y119700D01*
X30000Y161265D02*
X40000D01*
D42*
X66000Y114025D02*
D03*
D43*
X67150Y139025D02*
D03*
D44*
X69750Y104775D02*
D03*
D45*
X80500Y96775D02*
D03*
D46*
X189800Y185025D02*
G03*
X189800Y185025I-4800J0D01*
G01*
D02*
G03*
X189800Y185025I-4800J0D01*
G01*
X19800D02*
G03*
X19800Y185025I-4800J0D01*
G01*
D02*
G03*
X19800Y185025I-4800J0D01*
G01*
D47*
X5469Y15345D02*
D03*
Y48219D02*
D03*
D48*
X17279Y23022D02*
D03*
Y40542D02*
D03*
D49*
X52008Y129159D02*
D03*
Y119159D02*
D03*
Y109159D02*
D03*
Y99159D02*
D03*
Y89159D02*
D03*
X60000Y15025D02*
D03*
X70000D02*
D03*
X80000D02*
D03*
X90000D02*
D03*
X100000D02*
D03*
X110000D02*
D03*
X120000D02*
D03*
X33000Y173025D02*
D03*
X75000Y148017D02*
D03*
X85000D02*
D03*
X95000D02*
D03*
X105000D02*
D03*
X115000D02*
D03*
X125000D02*
D03*
X135000D02*
D03*
D50*
X52008Y79159D02*
D03*
D51*
X130000Y15025D02*
D03*
X65000Y148017D02*
D03*
D52*
X187461Y113194D02*
D03*
X192461Y98194D02*
D03*
X187461D02*
D03*
X192461Y103194D02*
D03*
X187461D02*
D03*
X192461Y108194D02*
D03*
X187461D02*
D03*
X192461Y113194D02*
D03*
Y118194D02*
D03*
D53*
X187461D02*
D03*
D54*
X15000Y185025D02*
D03*
X185000D02*
D03*
D55*
X83500Y29500D02*
D03*
D56*
X69500Y77025D02*
D03*
X55000Y70025D02*
D03*
X66500Y122525D02*
D03*
Y105025D02*
D03*
X80170Y83925D02*
D03*
X83400D02*
D03*
X76840Y84025D02*
D03*
X69700Y139125D02*
D03*
X65500Y139025D02*
D03*
X77000Y109525D02*
D03*
X84000D02*
D03*
X77000Y118025D02*
D03*
X84000Y114025D02*
D03*
X77000D02*
D03*
D57*
X153500Y37500D02*
D03*
X47500Y28000D02*
D03*
X96000Y116025D02*
D03*
X97000Y121525D02*
D03*
X110500Y92025D02*
D03*
X113200Y102225D02*
D03*
X104500Y102525D02*
D03*
X125000Y165025D02*
D03*
X62000Y78025D02*
D03*
X65000Y134525D02*
D03*
X102000Y119025D02*
D03*
X47500Y20592D02*
D03*
X57700Y79543D02*
D03*
X116200Y100325D02*
D03*
X110400Y81525D02*
D03*
X102017Y111000D02*
D03*
X80100Y143625D02*
D03*
X98050Y82950D02*
D03*
X127900Y121825D02*
D03*
X80200Y156725D02*
D03*
X142500Y119646D02*
D03*
X150175Y120550D02*
D03*
X143500Y61525D02*
D03*
X144600Y185025D02*
D03*
X140000Y169000D02*
D03*
X100800Y173125D02*
D03*
X124800Y188725D02*
D03*
X132900Y40025D02*
D03*
X178600Y39025D02*
D03*
X164900Y125625D02*
D03*
X142600Y100425D02*
D03*
X85000Y173100D02*
D03*
X131575D02*
D03*
X110200Y165325D02*
D03*
X128000Y127225D02*
D03*
X97400Y127900D02*
D03*
X92300Y89600D02*
D03*
X135800Y51300D02*
D03*
X133900Y107500D02*
D03*
X143200Y67400D02*
D03*
X150800D02*
D03*
X150100Y49500D02*
D03*
X97700Y101700D02*
D03*
X153700Y76600D02*
D03*
X121600Y76700D02*
D03*
X97400Y91300D02*
D03*
X82000Y97025D02*
D03*
D58*
X42000Y94025D02*
D03*
X92500Y68525D02*
D03*
X108500Y25525D02*
D03*
X175000Y126025D02*
D03*
X138000Y133025D02*
D03*
X134100Y119625D02*
D03*
X175100Y139025D02*
D03*
X197000Y74025D02*
D03*
X178000Y46025D02*
D03*
X174500Y25425D02*
D03*
X187575Y155115D02*
D03*
X187500Y150625D02*
D03*
X174900Y83625D02*
D03*
X165200Y83425D02*
D03*
M02*
