M48
;Layer_Color=9474304
;FILE_FORMAT=2:5
INCH,LZ
;TYPE=PLATED
T1F00S00C0.01181
T2F00S00C0.01200
T3F00S00C0.01378
T4F00S00C0.01400
T5F00S00C0.01402
T7F00S00C0.02500
T9F00S00C0.03543
;TYPE=NON_PLATED
T10F00S00C0.09606
%
T01
X00475Y0028
X00577Y0079543
X0062Y0078025
X0082Y0097025
X00923Y00896
X00974Y00913
X009805Y008295
X01104Y0081525
X01105Y0092025
X01132Y0102225
X01162Y0100325
X01045Y0102525
X00977Y01017
X0102017Y0111
X0102Y0119025
X0097Y0121525
X0096Y0116025
X00974Y01279
X0128Y0127225
X01279Y0121825
X01339Y01075
X01216Y00767
X01358Y00513
X01329Y0040025
X00801Y0143625
X0065Y0134525
X01425Y0119646
X0150175Y012055
X01649Y0125625
X01426Y0100425
X01432Y00674
X01435Y0061525
X01508Y00674
X01537Y00766
X01501Y00495
X01535Y00375
X01786Y0039025
X01446Y0185025
X014Y0169
X0131575Y01731
X0125Y0165025
X01102Y0165325
X01008Y0173125
X0085Y01731
X00802Y0156725
X01248Y0188725
T02
X0055Y0070025
X00695Y0077025
X007684Y0084025
X008017Y0083925
X00834
X0084Y0109525
Y0114025
X0077
Y0118025
Y0109525
X00665Y0105025
Y0122525
X00655Y0139025
X00697Y0139125
T03
X00475Y0020592
T04
X01085Y0025525
X00925Y0068525
X0042Y0094025
X01341Y0119625
X0138Y0133025
X01751Y0139025
X0175Y0126025
X01875Y0150625
X0187575Y0155115
X01749Y0083625
X01652Y0083425
X0197Y0074025
X0178Y0046025
X01745Y0025425
T05
X00835Y00295
T07
X0187461Y0098194
X0192461
Y0103194
X0187461
Y0108194
Y0113194
X0192461
Y0108194
Y0118194
X0187461
T09
X006Y0015025
X007
X008
X009
X01
X011
X012
X013
X0125Y0148017
X0115
X0105
X0095
X0085
X0075
X0065
X0052008Y0129159
Y0119159
Y0109159
Y0099159
Y0089159
Y0079159
X0135Y0148017
X0033Y0173025
T10
X0185Y0185025
X0015
M30
