G04*
G04 #@! TF.GenerationSoftware,Altium Limited,Altium Designer,19.1.8 (144)*
G04*
G04 Layer_Color=65535*
%FSLAX25Y25*%
%MOIN*%
G70*
G01*
G75*
%ADD10C,0.00787*%
%ADD11C,0.01000*%
%ADD12C,0.00500*%
%ADD13C,0.00984*%
%ADD14C,0.00600*%
D10*
X21216Y26664D02*
G03*
X21216Y26664I-394J0D01*
G01*
X57008Y74159D02*
Y134159D01*
X47008Y74159D02*
Y134159D01*
Y74159D02*
X57008D01*
X47008Y134159D02*
X57008D01*
X179461Y112694D02*
X181461D01*
X179528Y102694D02*
X181461D01*
Y112694D01*
X179461D02*
Y128694D01*
X184256Y133490D01*
X200591D01*
Y82899D02*
Y133490D01*
X179528Y82899D02*
X200591D01*
X179528D02*
Y102694D01*
X140000Y143017D02*
Y153017D01*
X60000Y143017D02*
X140000D01*
X60000D02*
Y153017D01*
X140000D01*
D11*
X35800Y173025D02*
G03*
X35800Y173025I-2800J0D01*
G01*
D12*
X11374Y17018D02*
X17476D01*
Y19971D01*
X11374Y46546D02*
X17476D01*
Y43593D02*
Y46546D01*
X87199Y128399D02*
X86699Y128899D01*
X85700D01*
X85200Y128399D01*
Y126400D01*
X85700Y125900D01*
X86699D01*
X87199Y126400D01*
X90198Y125900D02*
X88199D01*
X90198Y127899D01*
Y128399D01*
X89699Y128899D01*
X88699D01*
X88199Y128399D01*
X93197Y128899D02*
X91198D01*
Y127400D01*
X92198Y127899D01*
X92698D01*
X93197Y127400D01*
Y126400D01*
X92698Y125900D01*
X91698D01*
X91198Y126400D01*
X176999Y20024D02*
X176499Y20524D01*
X175500D01*
X175000Y20024D01*
Y19524D01*
X175500Y19025D01*
X176499D01*
X176999Y18525D01*
Y18025D01*
X176499Y17525D01*
X175500D01*
X175000Y18025D01*
X177999Y17525D02*
X178999D01*
X178499D01*
Y20524D01*
X177999Y20024D01*
X181999Y139024D02*
X181000D01*
X181500D01*
Y136525D01*
X181000Y136025D01*
X180500D01*
X180000Y136525D01*
X184998Y136025D02*
X182999D01*
X184998Y138024D01*
Y138524D01*
X184499Y139024D01*
X183499D01*
X182999Y138524D01*
X185998D02*
X186498Y139024D01*
X187498D01*
X187997Y138524D01*
Y138024D01*
X187498Y137524D01*
X186998D01*
X187498D01*
X187997Y137025D01*
Y136525D01*
X187498Y136025D01*
X186498D01*
X185998Y136525D01*
X19000Y175024D02*
X20999D01*
X20000D01*
Y172025D01*
X21999D02*
Y175024D01*
X23499D01*
X23998Y174524D01*
Y173524D01*
X23499Y173025D01*
X21999D01*
X24998Y172025D02*
X25998D01*
X25498D01*
Y175024D01*
X24998Y174524D01*
X33000Y38500D02*
Y41499D01*
X34499D01*
X34999Y40999D01*
Y39999D01*
X34499Y39500D01*
X33000D01*
X34000D02*
X34999Y38500D01*
X35999Y40999D02*
X36499Y41499D01*
X37499D01*
X37998Y40999D01*
Y40499D01*
X37499Y39999D01*
X36999D01*
X37499D01*
X37998Y39500D01*
Y39000D01*
X37499Y38500D01*
X36499D01*
X35999Y39000D01*
X33000Y17000D02*
Y19999D01*
X34499D01*
X34999Y19499D01*
Y18499D01*
X34499Y18000D01*
X33000D01*
X34000D02*
X34999Y17000D01*
X37499D02*
Y19999D01*
X35999Y18499D01*
X37998D01*
X175000Y57025D02*
Y60024D01*
X176499D01*
X176999Y59524D01*
Y58525D01*
X176499Y58025D01*
X175000D01*
X176000D02*
X176999Y57025D01*
X179998D02*
X177999D01*
X179998Y59024D01*
Y59524D01*
X179499Y60024D01*
X178499D01*
X177999Y59524D01*
X175000Y50025D02*
Y53024D01*
X176499D01*
X176999Y52524D01*
Y51525D01*
X176499Y51025D01*
X175000D01*
X176000D02*
X176999Y50025D01*
X177999D02*
X178999D01*
X178499D01*
Y53024D01*
X177999Y52524D01*
X152999Y156024D02*
X152000D01*
X152499D01*
Y153525D01*
X152000Y153025D01*
X151500D01*
X151000Y153525D01*
X155998Y153025D02*
X153999D01*
X155998Y155024D01*
Y155524D01*
X155499Y156024D01*
X154499D01*
X153999Y155524D01*
X158997Y153025D02*
X156998D01*
X158997Y155024D01*
Y155524D01*
X158498Y156024D01*
X157498D01*
X156998Y155524D01*
X49099Y140099D02*
X48100D01*
X48599D01*
Y137600D01*
X48100Y137100D01*
X47600D01*
X47100Y137600D01*
X52098Y137100D02*
X50099D01*
X52098Y139099D01*
Y139599D01*
X51599Y140099D01*
X50599D01*
X50099Y139599D01*
X53098Y137100D02*
X54098D01*
X53598D01*
Y140099D01*
X53098Y139599D01*
X6999Y12024D02*
X6000D01*
X6499D01*
Y9525D01*
X6000Y9025D01*
X5500D01*
X5000Y9525D01*
X9998Y9025D02*
X7999D01*
X9998Y11024D01*
Y11524D01*
X9499Y12024D01*
X8499D01*
X7999Y11524D01*
X12498Y9025D02*
Y12024D01*
X10998Y10525D01*
X12997D01*
X46999Y62524D02*
X46499Y63024D01*
X45500D01*
X45000Y62524D01*
Y60525D01*
X45500Y60025D01*
X46499D01*
X46999Y60525D01*
X49998Y60025D02*
X47999D01*
X49998Y62024D01*
Y62524D01*
X49499Y63024D01*
X48499D01*
X47999Y62524D01*
X50998Y60025D02*
X51998D01*
X51498D01*
Y63024D01*
X50998Y62524D01*
X16999D02*
X16499Y63024D01*
X15500D01*
X15000Y62524D01*
Y60525D01*
X15500Y60025D01*
X16499D01*
X16999Y60525D01*
X19998Y60025D02*
X17999D01*
X19998Y62024D01*
Y62524D01*
X19499Y63024D01*
X18499D01*
X17999Y62524D01*
X20998D02*
X21498Y63024D01*
X22498D01*
X22997Y62524D01*
Y60525D01*
X22498Y60025D01*
X21498D01*
X20998Y60525D01*
Y62524D01*
X16999Y162524D02*
X16499Y163024D01*
X15500D01*
X15000Y162524D01*
Y160525D01*
X15500Y160025D01*
X16499D01*
X16999Y160525D01*
X17999Y160025D02*
X18999D01*
X18499D01*
Y163024D01*
X17999Y162524D01*
X20498Y160525D02*
X20998Y160025D01*
X21998D01*
X22498Y160525D01*
Y162524D01*
X21998Y163024D01*
X20998D01*
X20498Y162524D01*
Y162024D01*
X20998Y161524D01*
X22498D01*
X46999Y162524D02*
X46499Y163024D01*
X45500D01*
X45000Y162524D01*
Y160525D01*
X45500Y160025D01*
X46499D01*
X46999Y160525D01*
X47999Y160025D02*
X48999D01*
X48499D01*
Y163024D01*
X47999Y162524D01*
X50498D02*
X50998Y163024D01*
X51998D01*
X52498Y162524D01*
Y162024D01*
X51998Y161524D01*
X52498Y161025D01*
Y160525D01*
X51998Y160025D01*
X50998D01*
X50498Y160525D01*
Y161025D01*
X50998Y161524D01*
X50498Y162024D01*
Y162524D01*
X50998Y161524D02*
X51998D01*
X75999Y140524D02*
X75499Y141024D01*
X74500D01*
X74000Y140524D01*
Y138525D01*
X74500Y138025D01*
X75499D01*
X75999Y138525D01*
X76999Y138025D02*
X77999D01*
X77499D01*
Y141024D01*
X76999Y140524D01*
X81498Y138025D02*
X79498D01*
X81498Y140024D01*
Y140524D01*
X80998Y141024D01*
X79998D01*
X79498Y140524D01*
X75999Y100524D02*
X75499Y101024D01*
X74500D01*
X74000Y100524D01*
Y98525D01*
X74500Y98025D01*
X75499D01*
X75999Y98525D01*
X76999Y98025D02*
X77999D01*
X77499D01*
Y101024D01*
X76999Y100524D01*
X79498Y98025D02*
X80498D01*
X79998D01*
Y101024D01*
X79498Y100524D01*
X176999Y35024D02*
X176499Y35524D01*
X175500D01*
X175000Y35024D01*
Y33025D01*
X175500Y32525D01*
X176499D01*
X176999Y33025D01*
X177999Y35524D02*
X179998D01*
Y35024D01*
X177999Y33025D01*
Y32525D01*
D13*
X193512Y14907D02*
Y25143D01*
X182488Y14907D02*
Y25143D01*
D14*
X51500Y4500D02*
Y7999D01*
X53249D01*
X53833Y7416D01*
Y6249D01*
X53249Y5666D01*
X51500D01*
X54999Y4500D02*
X57331Y6833D01*
X58498Y4500D02*
Y7999D01*
X60830Y4500D01*
Y7999D01*
X65496Y4500D02*
X66662D01*
X66079D01*
Y7999D01*
X65496Y7416D01*
X68411Y7999D02*
X70744D01*
Y7416D01*
X68411Y5083D01*
Y4500D01*
X71910D02*
Y5083D01*
X72493D01*
Y4500D01*
X71910D01*
X74826D02*
X75992D01*
X75409D01*
Y7999D01*
X74826Y7416D01*
X77741Y4500D02*
X78908D01*
X78325D01*
Y7999D01*
X77741Y7416D01*
X80657Y4500D02*
Y5083D01*
X81240D01*
Y4500D01*
X80657D01*
X83573D02*
Y7999D01*
X85322D01*
X85905Y7416D01*
Y6249D01*
X85322Y5666D01*
X83573D01*
X87072Y4500D02*
Y7999D01*
X88821D01*
X89404Y7416D01*
Y6249D01*
X88821Y5666D01*
X87072D01*
X90571Y7416D02*
X91154Y7999D01*
X92320D01*
X92903Y7416D01*
Y5083D01*
X92320Y4500D01*
X91154D01*
X90571Y5083D01*
Y7416D01*
X94070D02*
X94653Y7999D01*
X95819D01*
X96402Y7416D01*
Y5083D01*
X95819Y4500D01*
X94653D01*
X94070Y5083D01*
Y7416D01*
X99318Y4500D02*
Y7999D01*
X97568Y6249D01*
X99901D01*
X44500Y43999D02*
Y40500D01*
X46833D01*
X48582Y42833D02*
X49748D01*
X50331Y42249D01*
Y40500D01*
X48582D01*
X47999Y41083D01*
X48582Y41666D01*
X50331D01*
X52081Y40500D02*
Y43416D01*
Y42249D01*
X51498D01*
X52664D01*
X52081D01*
Y43416D01*
X52664Y43999D01*
X54413Y40500D02*
X55580D01*
X54997D01*
Y43999D01*
X54413D01*
X59079Y40500D02*
X57912D01*
X57329Y41083D01*
Y42249D01*
X57912Y42833D01*
X59079D01*
X59662Y42249D01*
Y41666D01*
X57329D01*
X60828Y42833D02*
Y41083D01*
X61411Y40500D01*
X63161D01*
Y42833D01*
X64327D02*
Y40500D01*
Y41666D01*
X64910Y42249D01*
X65493Y42833D01*
X66076D01*
X71325Y43999D02*
Y40500D01*
X73074D01*
X73657Y41083D01*
Y43416D01*
X73074Y43999D01*
X71325D01*
X76573Y40500D02*
X75407D01*
X74823Y41083D01*
Y42249D01*
X75407Y42833D01*
X76573D01*
X77156Y42249D01*
Y41666D01*
X74823D01*
X78322Y40500D02*
X80072D01*
X80655Y41083D01*
X80072Y41666D01*
X78905D01*
X78322Y42249D01*
X78905Y42833D01*
X80655D01*
X81821Y40500D02*
X82988D01*
X82404D01*
Y42833D01*
X81821D01*
X85903Y39334D02*
X86486D01*
X87070Y39917D01*
Y42833D01*
X85320D01*
X84737Y42249D01*
Y41083D01*
X85320Y40500D01*
X87070D01*
X88236D02*
Y42833D01*
X89985D01*
X90568Y42249D01*
Y40500D01*
X91735D02*
X93484D01*
X94067Y41083D01*
X93484Y41666D01*
X92318D01*
X91735Y42249D01*
X92318Y42833D01*
X94067D01*
X50500Y22000D02*
Y25499D01*
X52249D01*
X52833Y24916D01*
Y23749D01*
X52249Y23166D01*
X50500D01*
X51666D02*
X52833Y22000D01*
X55748D02*
X54582D01*
X53999Y22583D01*
Y23749D01*
X54582Y24333D01*
X55748D01*
X56331Y23749D01*
Y23166D01*
X53999D01*
X57498Y24333D02*
X58664Y22000D01*
X59830Y24333D01*
X64495Y24916D02*
X65079Y25499D01*
X66245D01*
X66828Y24916D01*
Y24333D01*
X66245Y23749D01*
X65662D01*
X66245D01*
X66828Y23166D01*
Y22583D01*
X66245Y22000D01*
X65079D01*
X64495Y22583D01*
X70327Y25499D02*
X67994D01*
Y22000D01*
X70327D01*
X67994Y23749D02*
X69161D01*
X73826Y22000D02*
X71493D01*
X73826Y24333D01*
Y24916D01*
X73243Y25499D01*
X72076D01*
X71493Y24916D01*
X75575Y21417D02*
X76158Y22000D01*
Y22583D01*
X75575D01*
Y22000D01*
X76158D01*
X75575Y21417D01*
X74992Y20834D01*
X44500Y35999D02*
Y33083D01*
X45083Y32500D01*
X46249D01*
X46833Y33083D01*
Y35999D01*
X50331Y35416D02*
X49748Y35999D01*
X48582D01*
X47999Y35416D01*
Y33083D01*
X48582Y32500D01*
X49748D01*
X50331Y33083D01*
X53830Y35416D02*
X53247Y35999D01*
X52081D01*
X51498Y35416D01*
Y34833D01*
X52081Y34249D01*
X53247D01*
X53830Y33666D01*
Y33083D01*
X53247Y32500D01*
X52081D01*
X51498Y33083D01*
X54997Y35999D02*
Y32500D01*
X56746D01*
X57329Y33083D01*
Y35416D01*
X56746Y35999D01*
X54997D01*
X61994Y32500D02*
Y35999D01*
X63744D01*
X64327Y35416D01*
Y34249D01*
X63744Y33666D01*
X61994D01*
X65493Y32500D02*
Y34833D01*
X66659Y35999D01*
X67826Y34833D01*
Y32500D01*
Y34249D01*
X65493D01*
X68992Y32500D02*
Y35999D01*
X71325Y32500D01*
Y35999D01*
X74240D02*
X73074D01*
X72491Y35416D01*
Y33083D01*
X73074Y32500D01*
X74240D01*
X74823Y33083D01*
Y35416D01*
X74240Y35999D01*
X78322Y35416D02*
X77739Y35999D01*
X76573D01*
X75990Y35416D01*
Y34833D01*
X76573Y34249D01*
X77739D01*
X78322Y33666D01*
Y33083D01*
X77739Y32500D01*
X76573D01*
X75990Y33083D01*
X81821Y35999D02*
X79489D01*
Y32500D01*
X81821D01*
X79489Y34249D02*
X80655D01*
X82988Y35999D02*
X85320D01*
X84154D01*
Y32500D01*
X86486Y35999D02*
X87653D01*
X87070D01*
Y32500D01*
X86486D01*
X87653D01*
X95234Y35416D02*
X94651Y35999D01*
X93484D01*
X92901Y35416D01*
Y34833D01*
X93484Y34249D01*
X94651D01*
X95234Y33666D01*
Y33083D01*
X94651Y32500D01*
X93484D01*
X92901Y33083D01*
X96400Y35999D02*
Y32500D01*
Y34249D01*
X96983Y34833D01*
X98149D01*
X98733Y34249D01*
Y32500D01*
X99899Y34833D02*
Y33083D01*
X100482Y32500D01*
X102231D01*
Y34833D01*
X103981Y35416D02*
Y34833D01*
X103398D01*
X104564D01*
X103981D01*
Y33083D01*
X104564Y32500D01*
X106896Y35416D02*
Y34833D01*
X106313D01*
X107480D01*
X106896D01*
Y33083D01*
X107480Y32500D01*
X110978D02*
X109812D01*
X109229Y33083D01*
Y34249D01*
X109812Y34833D01*
X110978D01*
X111562Y34249D01*
Y33666D01*
X109229D01*
X112728Y34833D02*
Y32500D01*
Y33666D01*
X113311Y34249D01*
X113894Y34833D01*
X114477D01*
X122058Y35416D02*
X121475Y35999D01*
X120309D01*
X119726Y35416D01*
Y33083D01*
X120309Y32500D01*
X121475D01*
X122058Y33083D01*
X123808Y32500D02*
X124974D01*
X125557Y33083D01*
Y34249D01*
X124974Y34833D01*
X123808D01*
X123225Y34249D01*
Y33083D01*
X123808Y32500D01*
X126723D02*
Y34833D01*
X128473D01*
X129056Y34249D01*
Y32500D01*
X130805Y35416D02*
Y34833D01*
X130222D01*
X131389D01*
X130805D01*
Y33083D01*
X131389Y32500D01*
X133138Y34833D02*
Y32500D01*
Y33666D01*
X133721Y34249D01*
X134304Y34833D01*
X134887D01*
X137220Y32500D02*
X138386D01*
X138970Y33083D01*
Y34249D01*
X138386Y34833D01*
X137220D01*
X136637Y34249D01*
Y33083D01*
X137220Y32500D01*
X140136D02*
X141302D01*
X140719D01*
Y35999D01*
X140136D01*
X143052Y32500D02*
X144218D01*
X143635D01*
Y35999D01*
X143052D01*
X147717Y32500D02*
X146550D01*
X145967Y33083D01*
Y34249D01*
X146550Y34833D01*
X147717D01*
X148300Y34249D01*
Y33666D01*
X145967D01*
X149466Y34833D02*
Y32500D01*
Y33666D01*
X150049Y34249D01*
X150632Y34833D01*
X151216D01*
X80333Y24999D02*
X79166D01*
X79749D01*
Y22083D01*
X79166Y21500D01*
X78583D01*
X78000Y22083D01*
X81499Y23833D02*
Y22083D01*
X82082Y21500D01*
X83831D01*
Y23833D01*
X84998Y21500D02*
Y23833D01*
X86747D01*
X87330Y23249D01*
Y21500D01*
X88497Y23249D02*
X90829D01*
X94328Y21500D02*
X91996D01*
X94328Y23833D01*
Y24416D01*
X93745Y24999D01*
X92579D01*
X91996Y24416D01*
X95494D02*
X96078Y24999D01*
X97244D01*
X97827Y24416D01*
Y22083D01*
X97244Y21500D01*
X96078D01*
X95494Y22083D01*
Y24416D01*
X101326Y21500D02*
X98993D01*
X101326Y23833D01*
Y24416D01*
X100743Y24999D01*
X99576D01*
X98993Y24416D01*
X104825Y21500D02*
X102492D01*
X104825Y23833D01*
Y24416D01*
X104242Y24999D01*
X103075D01*
X102492Y24416D01*
M02*
