G04*
G04 #@! TF.GenerationSoftware,Altium Limited,Altium Designer,19.1.8 (144)*
G04*
G04 Layer_Color=16711935*
%FSLAX25Y25*%
%MOIN*%
G70*
G01*
G75*
%ADD23R,0.05918X0.06706*%
%ADD24R,0.06706X0.05918*%
%ADD25O,0.08280X0.04540*%
%ADD26O,0.09068X0.04934*%
%ADD27C,0.06706*%
%ADD28R,0.06706X0.06706*%
%ADD29R,0.06706X0.06706*%
%ADD30C,0.04675*%
%ADD31R,0.04675X0.04675*%
%ADD32C,0.06800*%
%ADD33C,0.04080*%
%ADD34C,0.03800*%
%ADD35C,0.03556*%
%ADD36C,0.04000*%
%ADD64R,0.13800X0.13800*%
%ADD75R,0.07887X0.07099*%
%ADD76R,0.18517X0.10642*%
%ADD77R,0.32296X0.14580*%
%ADD78R,0.06600X0.01900*%
%ADD79R,0.01900X0.06600*%
G04:AMPARAMS|DCode=80|XSize=25.72mil|YSize=80.83mil|CornerRadius=5.95mil|HoleSize=0mil|Usage=FLASHONLY|Rotation=90.000|XOffset=0mil|YOffset=0mil|HoleType=Round|Shape=RoundedRectangle|*
%AMROUNDEDRECTD80*
21,1,0.02572,0.06894,0,0,90.0*
21,1,0.01382,0.08083,0,0,90.0*
1,1,0.01190,0.03447,0.00691*
1,1,0.01190,0.03447,-0.00691*
1,1,0.01190,-0.03447,-0.00691*
1,1,0.01190,-0.03447,0.00691*
%
%ADD80ROUNDEDRECTD80*%
%ADD81R,0.08280X0.05131*%
%ADD82R,0.18517X0.08674*%
%ADD83R,0.01981X0.03950*%
%ADD84R,0.03950X0.01981*%
%ADD85R,0.15761X0.15761*%
G36*
X1327Y15345D02*
Y19160D01*
X9602D01*
Y15345D01*
X1327D01*
D02*
G37*
G36*
X1329Y44380D02*
Y48243D01*
X9602D01*
Y44380D01*
X1329D01*
D02*
G37*
D23*
X86620Y96225D02*
D03*
X94100D02*
D03*
X80260Y162025D02*
D03*
X87740D02*
D03*
X86240Y135025D02*
D03*
X78760D02*
D03*
X96260D02*
D03*
X103740D02*
D03*
X131240Y132525D02*
D03*
X123760D02*
D03*
X153740D02*
D03*
X146260D02*
D03*
D24*
X120000Y188765D02*
D03*
Y181285D02*
D03*
X40000D02*
D03*
Y188765D02*
D03*
X160000D02*
D03*
Y181285D02*
D03*
X105000Y86285D02*
D03*
Y93765D02*
D03*
Y76265D02*
D03*
Y68785D02*
D03*
X113800Y116285D02*
D03*
Y123765D02*
D03*
X170000Y126265D02*
D03*
Y118785D02*
D03*
Y83785D02*
D03*
Y91265D02*
D03*
X160000Y46265D02*
D03*
Y38785D02*
D03*
X100000D02*
D03*
Y46265D02*
D03*
X61000Y98285D02*
D03*
Y105765D02*
D03*
Y129765D02*
D03*
Y122285D02*
D03*
X100000Y188765D02*
D03*
Y181285D02*
D03*
X150000Y188765D02*
D03*
Y181285D02*
D03*
X130000Y188765D02*
D03*
Y181285D02*
D03*
X110000D02*
D03*
Y188765D02*
D03*
X140000Y181285D02*
D03*
Y188765D02*
D03*
X90000Y181285D02*
D03*
Y188765D02*
D03*
X80000D02*
D03*
Y181285D02*
D03*
X50000Y188765D02*
D03*
Y181285D02*
D03*
X60000D02*
D03*
Y188765D02*
D03*
D25*
X5469Y15345D02*
D03*
Y48219D02*
D03*
D26*
X17279Y23022D02*
D03*
Y40542D02*
D03*
D27*
X52008Y129159D02*
D03*
Y119159D02*
D03*
Y109159D02*
D03*
Y99159D02*
D03*
Y89159D02*
D03*
X60000Y15025D02*
D03*
X70000D02*
D03*
X80000D02*
D03*
X90000D02*
D03*
X100000D02*
D03*
X110000D02*
D03*
X120000D02*
D03*
X33000Y173025D02*
D03*
X75000Y148017D02*
D03*
X85000D02*
D03*
X95000D02*
D03*
X105000D02*
D03*
X115000D02*
D03*
X125000D02*
D03*
X135000D02*
D03*
D28*
X52008Y79159D02*
D03*
D29*
X130000Y15025D02*
D03*
X65000Y148017D02*
D03*
D30*
X187461Y113194D02*
D03*
X192461Y98194D02*
D03*
X187461D02*
D03*
X192461Y103194D02*
D03*
X187461D02*
D03*
X192461Y108194D02*
D03*
X187461D02*
D03*
X192461Y113194D02*
D03*
Y118194D02*
D03*
D31*
X187461D02*
D03*
D32*
X15000Y185025D02*
D03*
X185000D02*
D03*
D33*
X83500Y29500D02*
D03*
D34*
X69500Y77025D02*
D03*
X55000Y70025D02*
D03*
X66500Y122525D02*
D03*
Y105025D02*
D03*
X80170Y83925D02*
D03*
X83400D02*
D03*
X76840Y84025D02*
D03*
X69700Y139125D02*
D03*
X65500Y139025D02*
D03*
X77000Y109525D02*
D03*
X84000D02*
D03*
X77000Y118025D02*
D03*
X84000Y114025D02*
D03*
X77000D02*
D03*
D35*
X153500Y37500D02*
D03*
X47500Y28000D02*
D03*
X96000Y116025D02*
D03*
X97000Y121525D02*
D03*
X110500Y92025D02*
D03*
X113200Y102225D02*
D03*
X104500Y102525D02*
D03*
X125000Y165025D02*
D03*
X62000Y78025D02*
D03*
X65000Y134525D02*
D03*
X102000Y119025D02*
D03*
X47500Y20592D02*
D03*
X57700Y79543D02*
D03*
X116200Y100325D02*
D03*
X110400Y81525D02*
D03*
X102017Y111000D02*
D03*
X80100Y143625D02*
D03*
X98050Y82950D02*
D03*
X127900Y121825D02*
D03*
X80200Y156725D02*
D03*
X142500Y119646D02*
D03*
X150175Y120550D02*
D03*
X143500Y61525D02*
D03*
X144600Y185025D02*
D03*
X140000Y169000D02*
D03*
X100800Y173125D02*
D03*
X124800Y188725D02*
D03*
X132900Y40025D02*
D03*
X178600Y39025D02*
D03*
X164900Y125625D02*
D03*
X142600Y100425D02*
D03*
X85000Y173100D02*
D03*
X131575D02*
D03*
X110200Y165325D02*
D03*
X128000Y127225D02*
D03*
X97400Y127900D02*
D03*
X92300Y89600D02*
D03*
X135800Y51300D02*
D03*
X133900Y107500D02*
D03*
X143200Y67400D02*
D03*
X150800D02*
D03*
X150100Y49500D02*
D03*
X97700Y101700D02*
D03*
X153700Y76600D02*
D03*
X121600Y76700D02*
D03*
X97400Y91300D02*
D03*
X82000Y97025D02*
D03*
D36*
X42000Y94025D02*
D03*
X92500Y68525D02*
D03*
X108500Y25525D02*
D03*
X175000Y126025D02*
D03*
X138000Y133025D02*
D03*
X134100Y119625D02*
D03*
X175100Y139025D02*
D03*
X197000Y74025D02*
D03*
X178000Y46025D02*
D03*
X174500Y25425D02*
D03*
X187575Y155115D02*
D03*
X187500Y150625D02*
D03*
X174900Y83625D02*
D03*
X165200Y83425D02*
D03*
D64*
X137500Y97525D02*
D03*
D75*
X160000Y25537D02*
D03*
Y14513D02*
D03*
D76*
X35000Y41142D02*
D03*
Y18898D02*
D03*
D77*
X73600Y66929D02*
D03*
Y44488D02*
D03*
D78*
X153700Y108352D02*
D03*
Y106383D02*
D03*
Y104415D02*
D03*
Y102446D02*
D03*
Y100478D02*
D03*
Y98509D02*
D03*
Y96541D02*
D03*
Y94572D02*
D03*
Y92604D02*
D03*
Y90635D02*
D03*
Y88667D02*
D03*
Y86698D02*
D03*
X121300D02*
D03*
Y88667D02*
D03*
Y90635D02*
D03*
Y92604D02*
D03*
Y94572D02*
D03*
Y96541D02*
D03*
Y98509D02*
D03*
Y100478D02*
D03*
Y102446D02*
D03*
Y104415D02*
D03*
Y106383D02*
D03*
Y108352D02*
D03*
D79*
X148327Y81325D02*
D03*
X146358D02*
D03*
X144390D02*
D03*
X142421D02*
D03*
X140453D02*
D03*
X138484D02*
D03*
X136516D02*
D03*
X134547D02*
D03*
X132579D02*
D03*
X130610D02*
D03*
X128642D02*
D03*
X126673D02*
D03*
Y113725D02*
D03*
X128642D02*
D03*
X130610D02*
D03*
X132579D02*
D03*
X134547D02*
D03*
X136516D02*
D03*
X138484D02*
D03*
X140453D02*
D03*
X142421D02*
D03*
X144390D02*
D03*
X146358D02*
D03*
X148327D02*
D03*
D80*
X142165Y47702D02*
D03*
Y45143D02*
D03*
Y42584D02*
D03*
Y40025D02*
D03*
Y37466D02*
D03*
Y34907D02*
D03*
Y32348D02*
D03*
X112835Y47702D02*
D03*
Y45143D02*
D03*
Y42584D02*
D03*
Y40025D02*
D03*
Y37466D02*
D03*
Y34907D02*
D03*
Y32348D02*
D03*
D81*
X170000Y109946D02*
D03*
Y100104D02*
D03*
D82*
X10236Y84025D02*
D03*
X35976D02*
D03*
X10236Y124025D02*
D03*
X35976D02*
D03*
D83*
X74094Y123867D02*
D03*
X76063D02*
D03*
X78031D02*
D03*
X80000D02*
D03*
X81968D02*
D03*
X83937D02*
D03*
X85905D02*
D03*
Y104183D02*
D03*
X83937D02*
D03*
X81968D02*
D03*
X80000D02*
D03*
X78031D02*
D03*
X76063D02*
D03*
X74094D02*
D03*
D84*
X89842Y119931D02*
D03*
Y117962D02*
D03*
Y115993D02*
D03*
Y114025D02*
D03*
Y112057D02*
D03*
Y110088D02*
D03*
Y108119D02*
D03*
X70157D02*
D03*
Y110088D02*
D03*
Y112057D02*
D03*
Y114025D02*
D03*
Y115993D02*
D03*
Y117962D02*
D03*
Y119931D02*
D03*
D85*
X80000Y114025D02*
D03*
M02*
