G04*
G04 #@! TF.GenerationSoftware,Altium Limited,Altium Designer,19.1.8 (144)*
G04*
G04 Layer_Color=16711935*
%FSLAX25Y25*%
%MOIN*%
G70*
G01*
G75*
%ADD23R,0.05918X0.06706*%
%ADD24R,0.06706X0.05918*%
%ADD25R,0.06706X0.06706*%
%ADD26C,0.06706*%
%ADD27O,0.09068X0.04934*%
%ADD28O,0.08280X0.04540*%
%ADD29R,0.05524X0.05524*%
%ADD30C,0.05524*%
%ADD31R,0.06706X0.06706*%
%ADD32C,0.06800*%
%ADD33C,0.03200*%
%ADD34C,0.03400*%
%ADD35C,0.03800*%
%ADD36C,0.04000*%
%ADD60R,0.13800X0.13800*%
G04:AMPARAMS|DCode=72|XSize=25.72mil|YSize=80.83mil|CornerRadius=5.95mil|HoleSize=0mil|Usage=FLASHONLY|Rotation=90.000|XOffset=0mil|YOffset=0mil|HoleType=Round|Shape=RoundedRectangle|*
%AMROUNDEDRECTD72*
21,1,0.02572,0.06894,0,0,90.0*
21,1,0.01382,0.08083,0,0,90.0*
1,1,0.01190,0.03447,0.00691*
1,1,0.01190,0.03447,-0.00691*
1,1,0.01190,-0.03447,-0.00691*
1,1,0.01190,-0.03447,0.00691*
%
%ADD72ROUNDEDRECTD72*%
%ADD73R,0.15761X0.15761*%
%ADD74R,0.03950X0.01981*%
%ADD75R,0.01981X0.03950*%
%ADD76R,0.01900X0.06600*%
%ADD77R,0.06600X0.01900*%
%ADD78R,0.28753X0.10642*%
%ADD79R,0.14186X0.07887*%
%ADD80R,0.07887X0.07099*%
%ADD81R,0.14100X0.06700*%
%ADD82R,0.08280X0.05131*%
G36*
X1327Y-184680D02*
Y-180865D01*
X9602D01*
Y-184680D01*
X1327D01*
D02*
G37*
G36*
X1329Y-155645D02*
Y-151782D01*
X9602D01*
Y-155645D01*
X1329D01*
D02*
G37*
D23*
X86620Y-103800D02*
D03*
X94100D02*
D03*
X80260Y-38000D02*
D03*
X87740D02*
D03*
X86240Y-65000D02*
D03*
X78760D02*
D03*
X96260D02*
D03*
X103740D02*
D03*
X131240Y-67500D02*
D03*
X123760D02*
D03*
X153740D02*
D03*
X146260D02*
D03*
D24*
X120000Y-18740D02*
D03*
Y-11260D02*
D03*
X70000Y-18740D02*
D03*
Y-11260D02*
D03*
X40000Y-18740D02*
D03*
Y-11260D02*
D03*
X160000D02*
D03*
Y-18740D02*
D03*
X105000Y-113740D02*
D03*
Y-106260D02*
D03*
Y-123760D02*
D03*
Y-131240D02*
D03*
X113800Y-83740D02*
D03*
Y-76260D02*
D03*
X170000Y-73760D02*
D03*
Y-81240D02*
D03*
Y-116240D02*
D03*
Y-108760D02*
D03*
X160000Y-153760D02*
D03*
Y-161240D02*
D03*
X100000D02*
D03*
Y-153760D02*
D03*
X61000Y-101740D02*
D03*
Y-94260D02*
D03*
Y-70260D02*
D03*
Y-77740D02*
D03*
X100000Y-11260D02*
D03*
Y-18740D02*
D03*
X150000Y-11260D02*
D03*
Y-18740D02*
D03*
X130000Y-11260D02*
D03*
Y-18740D02*
D03*
X110000D02*
D03*
Y-11260D02*
D03*
X140000Y-18740D02*
D03*
Y-11260D02*
D03*
X90000Y-18740D02*
D03*
Y-11260D02*
D03*
X80000D02*
D03*
Y-18740D02*
D03*
X50000Y-11260D02*
D03*
Y-18740D02*
D03*
X60000D02*
D03*
Y-11260D02*
D03*
D25*
X65000Y-52008D02*
D03*
X130000Y-185000D02*
D03*
D26*
X75000Y-52008D02*
D03*
X85000D02*
D03*
X95000D02*
D03*
X105000D02*
D03*
X115000D02*
D03*
X125000D02*
D03*
X135000D02*
D03*
X52008Y-110866D02*
D03*
Y-100866D02*
D03*
Y-90866D02*
D03*
Y-80866D02*
D03*
Y-70866D02*
D03*
X120000Y-185000D02*
D03*
X110000D02*
D03*
X100000D02*
D03*
X90000D02*
D03*
X80000D02*
D03*
X70000D02*
D03*
X60000D02*
D03*
X33000Y-27000D02*
D03*
D27*
X17279Y-159483D02*
D03*
Y-177003D02*
D03*
D28*
X5469Y-151806D02*
D03*
Y-184680D02*
D03*
D29*
X187461Y-81831D02*
D03*
D30*
X192461D02*
D03*
Y-86831D02*
D03*
X187461Y-91831D02*
D03*
X192461D02*
D03*
X187461Y-96831D02*
D03*
X192461D02*
D03*
X187461Y-101831D02*
D03*
X192461D02*
D03*
X187461Y-86831D02*
D03*
D31*
X52008Y-120866D02*
D03*
D32*
X15000Y-15000D02*
D03*
X185000D02*
D03*
D33*
X47500Y-168025D02*
D03*
Y-179433D02*
D03*
X116200Y-99700D02*
D03*
X105900Y-97400D02*
D03*
D34*
X57700Y-120482D02*
D03*
X61900Y-120400D02*
D03*
X113200Y-97800D02*
D03*
X110600Y-109000D02*
D03*
X110400Y-118500D02*
D03*
X102017Y-89025D02*
D03*
X65600Y-66000D02*
D03*
X80100Y-56400D02*
D03*
X98050Y-117075D02*
D03*
X127900Y-78200D02*
D03*
X80200Y-43300D02*
D03*
X142500Y-80379D02*
D03*
X150175Y-79475D02*
D03*
X83000Y-161311D02*
D03*
X143500Y-138500D02*
D03*
X144600Y-15000D02*
D03*
X140000Y-31025D02*
D03*
X100800Y-26900D02*
D03*
X124800Y-11300D02*
D03*
X151400Y-162500D02*
D03*
X132900Y-160000D02*
D03*
X178600Y-161000D02*
D03*
X98100Y-81100D02*
D03*
X164900Y-74400D02*
D03*
X142600Y-99600D02*
D03*
X85000Y-26925D02*
D03*
X131575D02*
D03*
X110200Y-34700D02*
D03*
X97400Y-72125D02*
D03*
X92300Y-110425D02*
D03*
X124600Y-33325D02*
D03*
X135800Y-148725D02*
D03*
X133900Y-92525D02*
D03*
X143200Y-132625D02*
D03*
X150800D02*
D03*
X150100Y-150525D02*
D03*
X97700Y-98325D02*
D03*
X153700Y-123425D02*
D03*
X121600Y-123325D02*
D03*
X97400Y-108725D02*
D03*
X102800Y-78525D02*
D03*
X82000Y-103000D02*
D03*
D35*
X69600Y-126500D02*
D03*
X69500Y-130200D02*
D03*
X66500Y-77500D02*
D03*
Y-95000D02*
D03*
X80170Y-116100D02*
D03*
X83400D02*
D03*
X76840Y-116000D02*
D03*
X69700Y-60900D02*
D03*
X65500Y-61000D02*
D03*
X77000Y-90500D02*
D03*
X84000D02*
D03*
X77000Y-82000D02*
D03*
X84000Y-86000D02*
D03*
Y-82000D02*
D03*
X77000Y-86000D02*
D03*
D36*
X92500Y-131500D02*
D03*
X108500Y-174500D02*
D03*
X43500Y-116500D02*
D03*
X175000Y-74000D02*
D03*
X138000Y-67000D02*
D03*
X134100Y-80400D02*
D03*
X175100Y-61000D02*
D03*
X197000Y-126000D02*
D03*
X178000Y-154000D02*
D03*
X174500Y-174600D02*
D03*
X187575Y-44910D02*
D03*
X187500Y-49400D02*
D03*
X174900Y-116400D02*
D03*
X165200Y-116600D02*
D03*
X128000Y-72800D02*
D03*
D60*
X137500Y-102500D02*
D03*
D72*
X112835Y-167677D02*
D03*
Y-165118D02*
D03*
Y-162559D02*
D03*
Y-160000D02*
D03*
Y-157441D02*
D03*
Y-154882D02*
D03*
Y-152323D02*
D03*
X142165Y-167677D02*
D03*
Y-165118D02*
D03*
Y-162559D02*
D03*
Y-160000D02*
D03*
Y-157441D02*
D03*
Y-154882D02*
D03*
Y-152323D02*
D03*
D73*
X80000Y-86000D02*
D03*
D74*
X70157Y-80094D02*
D03*
Y-82063D02*
D03*
Y-84031D02*
D03*
Y-86000D02*
D03*
Y-87968D02*
D03*
Y-89937D02*
D03*
Y-91905D02*
D03*
X89842D02*
D03*
Y-89937D02*
D03*
Y-87968D02*
D03*
Y-86000D02*
D03*
Y-84031D02*
D03*
Y-82063D02*
D03*
Y-80094D02*
D03*
D75*
X74094Y-95842D02*
D03*
X76063D02*
D03*
X78031D02*
D03*
X80000D02*
D03*
X81968D02*
D03*
X83937D02*
D03*
X85905D02*
D03*
Y-76157D02*
D03*
X83937D02*
D03*
X81968D02*
D03*
X80000D02*
D03*
X78031D02*
D03*
X76063D02*
D03*
X74094D02*
D03*
D76*
X148327Y-86300D02*
D03*
X146358D02*
D03*
X144390D02*
D03*
X142421D02*
D03*
X140453D02*
D03*
X138484D02*
D03*
X136516D02*
D03*
X134547D02*
D03*
X132579D02*
D03*
X130610D02*
D03*
X128642D02*
D03*
X126673D02*
D03*
Y-118700D02*
D03*
X128642D02*
D03*
X130610D02*
D03*
X132579D02*
D03*
X134547D02*
D03*
X136516D02*
D03*
X138484D02*
D03*
X140453D02*
D03*
X142421D02*
D03*
X144390D02*
D03*
X146358D02*
D03*
X148327D02*
D03*
D77*
X121300Y-91673D02*
D03*
Y-93642D02*
D03*
Y-95610D02*
D03*
Y-97579D02*
D03*
Y-99547D02*
D03*
Y-101516D02*
D03*
Y-103484D02*
D03*
Y-105453D02*
D03*
Y-107421D02*
D03*
Y-109390D02*
D03*
Y-111358D02*
D03*
Y-113327D02*
D03*
X153700D02*
D03*
Y-111358D02*
D03*
Y-109390D02*
D03*
Y-107421D02*
D03*
Y-105453D02*
D03*
Y-103484D02*
D03*
Y-101516D02*
D03*
Y-99547D02*
D03*
Y-97579D02*
D03*
Y-95610D02*
D03*
Y-93642D02*
D03*
Y-91673D02*
D03*
D78*
X73600Y-147555D02*
D03*
Y-129445D02*
D03*
D79*
X10189Y-116000D02*
D03*
X33811D02*
D03*
X10189Y-76000D02*
D03*
X33811D02*
D03*
D80*
X160000Y-185512D02*
D03*
Y-174488D02*
D03*
D81*
X35000Y-179600D02*
D03*
Y-160400D02*
D03*
D82*
X170000Y-99921D02*
D03*
Y-90079D02*
D03*
M02*
