G04*
G04 #@! TF.GenerationSoftware,Altium Limited,Altium Designer,19.1.8 (144)*
G04*
G04 Layer_Color=65535*
%FSLAX25Y25*%
%MOIN*%
G70*
G01*
G75*
%ADD10C,0.00787*%
%ADD11C,0.01000*%
%ADD12C,0.00500*%
%ADD13C,0.00984*%
%ADD14C,0.00600*%
D10*
X21216Y-173361D02*
G03*
X21216Y-173361I-394J0D01*
G01*
X140000Y-57008D02*
Y-47008D01*
X60000Y-57008D02*
X140000D01*
X60000D02*
Y-47008D01*
X140000D01*
X179528Y-117126D02*
Y-97331D01*
Y-117126D02*
X200591D01*
Y-66536D01*
X184256D02*
X200591D01*
X179461Y-71331D02*
X184256Y-66536D01*
X179461Y-87331D02*
Y-71331D01*
X181461Y-97331D02*
Y-87331D01*
X179528Y-97331D02*
X181461D01*
X179461Y-87331D02*
X181461D01*
X47008Y-65866D02*
X57008D01*
X47008Y-125866D02*
X57008D01*
X47008D02*
Y-65866D01*
X57008Y-125866D02*
Y-65866D01*
D11*
X35800Y-27000D02*
G03*
X35800Y-27000I-2800J0D01*
G01*
D12*
X17476Y-156432D02*
Y-153479D01*
X11374D02*
X17476D01*
Y-183007D02*
Y-180054D01*
X11374Y-183007D02*
X17476D01*
X152999Y-44001D02*
X152000D01*
X152499D01*
Y-46500D01*
X152000Y-47000D01*
X151500D01*
X151000Y-46500D01*
X155998Y-47000D02*
X153999D01*
X155998Y-45001D01*
Y-44501D01*
X155499Y-44001D01*
X154499D01*
X153999Y-44501D01*
X158997Y-47000D02*
X156998D01*
X158997Y-45001D01*
Y-44501D01*
X158498Y-44001D01*
X157498D01*
X156998Y-44501D01*
X6999Y-188001D02*
X6000D01*
X6499D01*
Y-190500D01*
X6000Y-191000D01*
X5500D01*
X5000Y-190500D01*
X9998Y-191000D02*
X7999D01*
X9998Y-189001D01*
Y-188501D01*
X9499Y-188001D01*
X8499D01*
X7999Y-188501D01*
X12498Y-191000D02*
Y-188001D01*
X10998Y-189500D01*
X12997D01*
X49099Y-59926D02*
X48100D01*
X48599D01*
Y-62425D01*
X48100Y-62925D01*
X47600D01*
X47100Y-62425D01*
X52098Y-62925D02*
X50099D01*
X52098Y-60926D01*
Y-60426D01*
X51599Y-59926D01*
X50599D01*
X50099Y-60426D01*
X53098Y-62925D02*
X54098D01*
X53598D01*
Y-59926D01*
X53098Y-60426D01*
X19000Y-25001D02*
X20999D01*
X20000D01*
Y-28000D01*
X21999D02*
Y-25001D01*
X23499D01*
X23998Y-25501D01*
Y-26500D01*
X23499Y-27000D01*
X21999D01*
X24998Y-28000D02*
X25998D01*
X25498D01*
Y-25001D01*
X24998Y-25501D01*
X181999Y-61001D02*
X181000D01*
X181500D01*
Y-63500D01*
X181000Y-64000D01*
X180500D01*
X180000Y-63500D01*
X184998Y-64000D02*
X182999D01*
X184998Y-62001D01*
Y-61501D01*
X184499Y-61001D01*
X183499D01*
X182999Y-61501D01*
X185998D02*
X186498Y-61001D01*
X187498D01*
X187997Y-61501D01*
Y-62001D01*
X187498Y-62501D01*
X186998D01*
X187498D01*
X187997Y-63000D01*
Y-63500D01*
X187498Y-64000D01*
X186498D01*
X185998Y-63500D01*
X176999Y-180001D02*
X176499Y-179501D01*
X175500D01*
X175000Y-180001D01*
Y-180501D01*
X175500Y-181000D01*
X176499D01*
X176999Y-181500D01*
Y-182000D01*
X176499Y-182500D01*
X175500D01*
X175000Y-182000D01*
X177999Y-182500D02*
X178999D01*
X178499D01*
Y-179501D01*
X177999Y-180001D01*
X33000Y-161525D02*
Y-158526D01*
X34499D01*
X34999Y-159026D01*
Y-160026D01*
X34499Y-160525D01*
X33000D01*
X34000D02*
X34999Y-161525D01*
X35999Y-159026D02*
X36499Y-158526D01*
X37499D01*
X37998Y-159026D01*
Y-159526D01*
X37499Y-160026D01*
X36999D01*
X37499D01*
X37998Y-160525D01*
Y-161025D01*
X37499Y-161525D01*
X36499D01*
X35999Y-161025D01*
X33000Y-183025D02*
Y-180026D01*
X34499D01*
X34999Y-180526D01*
Y-181526D01*
X34499Y-182025D01*
X33000D01*
X34000D02*
X34999Y-183025D01*
X37499D02*
Y-180026D01*
X35999Y-181526D01*
X37998D01*
X175000Y-143000D02*
Y-140001D01*
X176499D01*
X176999Y-140501D01*
Y-141500D01*
X176499Y-142000D01*
X175000D01*
X176000D02*
X176999Y-143000D01*
X179998D02*
X177999D01*
X179998Y-141001D01*
Y-140501D01*
X179499Y-140001D01*
X178499D01*
X177999Y-140501D01*
X175000Y-150000D02*
Y-147001D01*
X176499D01*
X176999Y-147501D01*
Y-148501D01*
X176499Y-149000D01*
X175000D01*
X176000D02*
X176999Y-150000D01*
X177999D02*
X178999D01*
X178499D01*
Y-147001D01*
X177999Y-147501D01*
X46999Y-137501D02*
X46499Y-137001D01*
X45500D01*
X45000Y-137501D01*
Y-139500D01*
X45500Y-140000D01*
X46499D01*
X46999Y-139500D01*
X49998Y-140000D02*
X47999D01*
X49998Y-138001D01*
Y-137501D01*
X49499Y-137001D01*
X48499D01*
X47999Y-137501D01*
X50998Y-140000D02*
X51998D01*
X51498D01*
Y-137001D01*
X50998Y-137501D01*
X16999D02*
X16499Y-137001D01*
X15500D01*
X15000Y-137501D01*
Y-139500D01*
X15500Y-140000D01*
X16499D01*
X16999Y-139500D01*
X19998Y-140000D02*
X17999D01*
X19998Y-138001D01*
Y-137501D01*
X19499Y-137001D01*
X18499D01*
X17999Y-137501D01*
X20998D02*
X21498Y-137001D01*
X22498D01*
X22997Y-137501D01*
Y-139500D01*
X22498Y-140000D01*
X21498D01*
X20998Y-139500D01*
Y-137501D01*
X16999Y-37501D02*
X16499Y-37001D01*
X15500D01*
X15000Y-37501D01*
Y-39500D01*
X15500Y-40000D01*
X16499D01*
X16999Y-39500D01*
X17999Y-40000D02*
X18999D01*
X18499D01*
Y-37001D01*
X17999Y-37501D01*
X20498Y-39500D02*
X20998Y-40000D01*
X21998D01*
X22498Y-39500D01*
Y-37501D01*
X21998Y-37001D01*
X20998D01*
X20498Y-37501D01*
Y-38001D01*
X20998Y-38500D01*
X22498D01*
X46999Y-37501D02*
X46499Y-37001D01*
X45500D01*
X45000Y-37501D01*
Y-39500D01*
X45500Y-40000D01*
X46499D01*
X46999Y-39500D01*
X47999Y-40000D02*
X48999D01*
X48499D01*
Y-37001D01*
X47999Y-37501D01*
X50498D02*
X50998Y-37001D01*
X51998D01*
X52498Y-37501D01*
Y-38001D01*
X51998Y-38500D01*
X52498Y-39000D01*
Y-39500D01*
X51998Y-40000D01*
X50998D01*
X50498Y-39500D01*
Y-39000D01*
X50998Y-38500D01*
X50498Y-38001D01*
Y-37501D01*
X50998Y-38500D02*
X51998D01*
X75999Y-59501D02*
X75499Y-59001D01*
X74500D01*
X74000Y-59501D01*
Y-61500D01*
X74500Y-62000D01*
X75499D01*
X75999Y-61500D01*
X76999Y-62000D02*
X77999D01*
X77499D01*
Y-59001D01*
X76999Y-59501D01*
X81498Y-62000D02*
X79498D01*
X81498Y-60001D01*
Y-59501D01*
X80998Y-59001D01*
X79998D01*
X79498Y-59501D01*
X75999Y-99501D02*
X75499Y-99001D01*
X74500D01*
X74000Y-99501D01*
Y-101500D01*
X74500Y-102000D01*
X75499D01*
X75999Y-101500D01*
X76999Y-102000D02*
X77999D01*
X77499D01*
Y-99001D01*
X76999Y-99501D01*
X79498Y-102000D02*
X80498D01*
X79998D01*
Y-99001D01*
X79498Y-99501D01*
X176999Y-165001D02*
X176499Y-164501D01*
X175500D01*
X175000Y-165001D01*
Y-167000D01*
X175500Y-167500D01*
X176499D01*
X176999Y-167000D01*
X177999Y-164501D02*
X179998D01*
Y-165001D01*
X177999Y-167000D01*
Y-167500D01*
D13*
X182488Y-185118D02*
Y-174882D01*
X193512Y-185118D02*
Y-174882D01*
D14*
X162500Y-190000D02*
X159001D01*
Y-188251D01*
X159584Y-187667D01*
X160751D01*
X161334Y-188251D01*
Y-190000D01*
X162500Y-186501D02*
X160167Y-184169D01*
X162500Y-183002D02*
X159001D01*
X162500Y-180670D01*
X159001D01*
X162500Y-176005D02*
Y-174838D01*
Y-175421D01*
X159001D01*
X159584Y-176005D01*
X159001Y-173089D02*
Y-170756D01*
X159584D01*
X161917Y-173089D01*
X162500D01*
Y-169590D02*
X161917D01*
Y-169007D01*
X162500D01*
Y-169590D01*
Y-166674D02*
Y-165508D01*
Y-166091D01*
X159001D01*
X159584Y-166674D01*
X162500Y-163759D02*
Y-162592D01*
Y-163175D01*
X159001D01*
X159584Y-163759D01*
X162500Y-160843D02*
X161917D01*
Y-160260D01*
X162500D01*
Y-160843D01*
Y-157927D02*
X159001D01*
Y-156178D01*
X159584Y-155595D01*
X160751D01*
X161334Y-156178D01*
Y-157927D01*
X162500Y-154428D02*
X159001D01*
Y-152679D01*
X159584Y-152096D01*
X160751D01*
X161334Y-152679D01*
Y-154428D01*
X159584Y-150929D02*
X159001Y-150346D01*
Y-149180D01*
X159584Y-148597D01*
X161917D01*
X162500Y-149180D01*
Y-150346D01*
X161917Y-150929D01*
X159584D01*
Y-147430D02*
X159001Y-146847D01*
Y-145681D01*
X159584Y-145098D01*
X161917D01*
X162500Y-145681D01*
Y-146847D01*
X161917Y-147430D01*
X159584D01*
X162500Y-142182D02*
X159001D01*
X160751Y-143932D01*
Y-141599D01*
X20000Y-188501D02*
Y-192000D01*
X22333D01*
X24082Y-189667D02*
X25248D01*
X25831Y-190251D01*
Y-192000D01*
X24082D01*
X23499Y-191417D01*
X24082Y-190834D01*
X25831D01*
X27581Y-192000D02*
Y-189084D01*
Y-190251D01*
X26998D01*
X28164D01*
X27581D01*
Y-189084D01*
X28164Y-188501D01*
X29913Y-192000D02*
X31080D01*
X30497D01*
Y-188501D01*
X29913D01*
X34579Y-192000D02*
X33412D01*
X32829Y-191417D01*
Y-190251D01*
X33412Y-189667D01*
X34579D01*
X35162Y-190251D01*
Y-190834D01*
X32829D01*
X36328Y-189667D02*
Y-191417D01*
X36911Y-192000D01*
X38661D01*
Y-189667D01*
X39827D02*
Y-192000D01*
Y-190834D01*
X40410Y-190251D01*
X40993Y-189667D01*
X41576D01*
X46825Y-188501D02*
Y-192000D01*
X48574D01*
X49157Y-191417D01*
Y-189084D01*
X48574Y-188501D01*
X46825D01*
X52073Y-192000D02*
X50907D01*
X50323Y-191417D01*
Y-190251D01*
X50907Y-189667D01*
X52073D01*
X52656Y-190251D01*
Y-190834D01*
X50323D01*
X53822Y-192000D02*
X55572D01*
X56155Y-191417D01*
X55572Y-190834D01*
X54405D01*
X53822Y-190251D01*
X54405Y-189667D01*
X56155D01*
X57321Y-192000D02*
X58488D01*
X57904D01*
Y-189667D01*
X57321D01*
X61403Y-193166D02*
X61986D01*
X62570Y-192583D01*
Y-189667D01*
X60820D01*
X60237Y-190251D01*
Y-191417D01*
X60820Y-192000D01*
X62570D01*
X63736D02*
Y-189667D01*
X65485D01*
X66068Y-190251D01*
Y-192000D01*
X67235D02*
X68984D01*
X69567Y-191417D01*
X68984Y-190834D01*
X67818D01*
X67235Y-190251D01*
X67818Y-189667D01*
X69567D01*
X130000Y-197500D02*
Y-194001D01*
X131749D01*
X132333Y-194584D01*
Y-195751D01*
X131749Y-196334D01*
X130000D01*
X131166D02*
X132333Y-197500D01*
X135248D02*
X134082D01*
X133499Y-196917D01*
Y-195751D01*
X134082Y-195167D01*
X135248D01*
X135831Y-195751D01*
Y-196334D01*
X133499D01*
X136998Y-195167D02*
X138164Y-197500D01*
X139330Y-195167D01*
X143995Y-194584D02*
X144579Y-194001D01*
X145745D01*
X146328Y-194584D01*
Y-195167D01*
X145745Y-195751D01*
X145162D01*
X145745D01*
X146328Y-196334D01*
Y-196917D01*
X145745Y-197500D01*
X144579D01*
X143995Y-196917D01*
X147494Y-194001D02*
Y-197500D01*
X149244D01*
X149827Y-196917D01*
Y-194584D01*
X149244Y-194001D01*
X147494D01*
X151576Y-198083D02*
X152160Y-197500D01*
Y-196917D01*
X151576D01*
Y-197500D01*
X152160D01*
X151576Y-198083D01*
X150993Y-198666D01*
X69833Y-194584D02*
X69249Y-194001D01*
X68083D01*
X67500Y-194584D01*
Y-195167D01*
X68083Y-195751D01*
X69249D01*
X69833Y-196334D01*
Y-196917D01*
X69249Y-197500D01*
X68083D01*
X67500Y-196917D01*
X70999Y-194001D02*
Y-197500D01*
Y-195751D01*
X71582Y-195167D01*
X72748D01*
X73331Y-195751D01*
Y-197500D01*
X74498Y-195167D02*
Y-196917D01*
X75081Y-197500D01*
X76830D01*
Y-195167D01*
X78580Y-194584D02*
Y-195167D01*
X77997D01*
X79163D01*
X78580D01*
Y-196917D01*
X79163Y-197500D01*
X81495Y-194584D02*
Y-195167D01*
X80912D01*
X82079D01*
X81495D01*
Y-196917D01*
X82079Y-197500D01*
X85577D02*
X84411D01*
X83828Y-196917D01*
Y-195751D01*
X84411Y-195167D01*
X85577D01*
X86161Y-195751D01*
Y-196334D01*
X83828D01*
X87327Y-195167D02*
Y-197500D01*
Y-196334D01*
X87910Y-195751D01*
X88493Y-195167D01*
X89076D01*
X96657Y-194584D02*
X96074Y-194001D01*
X94908D01*
X94325Y-194584D01*
Y-196917D01*
X94908Y-197500D01*
X96074D01*
X96657Y-196917D01*
X98407Y-197500D02*
X99573D01*
X100156Y-196917D01*
Y-195751D01*
X99573Y-195167D01*
X98407D01*
X97824Y-195751D01*
Y-196917D01*
X98407Y-197500D01*
X101322D02*
Y-195167D01*
X103072D01*
X103655Y-195751D01*
Y-197500D01*
X105404Y-194584D02*
Y-195167D01*
X104821D01*
X105988D01*
X105404D01*
Y-196917D01*
X105988Y-197500D01*
X107737Y-195167D02*
Y-197500D01*
Y-196334D01*
X108320Y-195751D01*
X108903Y-195167D01*
X109486D01*
X111819Y-197500D02*
X112985D01*
X113568Y-196917D01*
Y-195751D01*
X112985Y-195167D01*
X111819D01*
X111236Y-195751D01*
Y-196917D01*
X111819Y-197500D01*
X114735D02*
X115901D01*
X115318D01*
Y-194001D01*
X114735D01*
X117650Y-197500D02*
X118817D01*
X118234D01*
Y-194001D01*
X117650D01*
X122316Y-197500D02*
X121149D01*
X120566Y-196917D01*
Y-195751D01*
X121149Y-195167D01*
X122316D01*
X122899Y-195751D01*
Y-196334D01*
X120566D01*
X124065Y-195167D02*
Y-197500D01*
Y-196334D01*
X124648Y-195751D01*
X125231Y-195167D01*
X125814D01*
X20000Y-194001D02*
Y-196917D01*
X20583Y-197500D01*
X21749D01*
X22333Y-196917D01*
Y-194001D01*
X25831Y-194584D02*
X25248Y-194001D01*
X24082D01*
X23499Y-194584D01*
Y-196917D01*
X24082Y-197500D01*
X25248D01*
X25831Y-196917D01*
X29330Y-194584D02*
X28747Y-194001D01*
X27581D01*
X26998Y-194584D01*
Y-195167D01*
X27581Y-195751D01*
X28747D01*
X29330Y-196334D01*
Y-196917D01*
X28747Y-197500D01*
X27581D01*
X26998Y-196917D01*
X30497Y-194001D02*
Y-197500D01*
X32246D01*
X32829Y-196917D01*
Y-194584D01*
X32246Y-194001D01*
X30497D01*
X37494Y-197500D02*
Y-194001D01*
X39244D01*
X39827Y-194584D01*
Y-195751D01*
X39244Y-196334D01*
X37494D01*
X40993Y-197500D02*
Y-195167D01*
X42160Y-194001D01*
X43326Y-195167D01*
Y-197500D01*
Y-195751D01*
X40993D01*
X44492Y-197500D02*
Y-194001D01*
X46825Y-197500D01*
Y-194001D01*
X49740D02*
X48574D01*
X47991Y-194584D01*
Y-196917D01*
X48574Y-197500D01*
X49740D01*
X50323Y-196917D01*
Y-194584D01*
X49740Y-194001D01*
X53822Y-194584D02*
X53239Y-194001D01*
X52073D01*
X51490Y-194584D01*
Y-195167D01*
X52073Y-195751D01*
X53239D01*
X53822Y-196334D01*
Y-196917D01*
X53239Y-197500D01*
X52073D01*
X51490Y-196917D01*
X57321Y-194001D02*
X54989D01*
Y-197500D01*
X57321D01*
X54989Y-195751D02*
X56155D01*
X58488Y-194001D02*
X60820D01*
X59654D01*
Y-197500D01*
X61986Y-194001D02*
X63153D01*
X62570D01*
Y-197500D01*
X61986D01*
X63153D01*
X157333Y-194584D02*
X156749Y-194001D01*
X155583D01*
X155000Y-194584D01*
Y-195167D01*
X155583Y-195751D01*
X156749D01*
X157333Y-196334D01*
Y-196917D01*
X156749Y-197500D01*
X155583D01*
X155000Y-196917D01*
X160248Y-197500D02*
X159082D01*
X158499Y-196917D01*
Y-195751D01*
X159082Y-195167D01*
X160248D01*
X160831Y-195751D01*
Y-196334D01*
X158499D01*
X161998Y-198666D02*
Y-195167D01*
X163747D01*
X164330Y-195751D01*
Y-196917D01*
X163747Y-197500D01*
X161998D01*
X165497Y-195751D02*
X167829D01*
X171328Y-197500D02*
X168995D01*
X171328Y-195167D01*
Y-194584D01*
X170745Y-194001D01*
X169579D01*
X168995Y-194584D01*
X172494D02*
X173077Y-194001D01*
X174244D01*
X174827Y-194584D01*
Y-196917D01*
X174244Y-197500D01*
X173077D01*
X172494Y-196917D01*
Y-194584D01*
X178326Y-197500D02*
X175993D01*
X178326Y-195167D01*
Y-194584D01*
X177743Y-194001D01*
X176576D01*
X175993Y-194584D01*
X179492Y-197500D02*
X180658D01*
X180075D01*
Y-194001D01*
X179492Y-194584D01*
M02*
