G04*
G04 #@! TF.GenerationSoftware,Altium Limited,Altium Designer,19.1.8 (144)*
G04*
G04 Layer_Color=8388736*
%FSLAX25Y25*%
%MOIN*%
G70*
G01*
G75*
%ADD20R,0.08280X0.12217*%
%ADD21R,0.06115X0.02375*%
%ADD22R,0.04737X0.04343*%
%ADD23R,0.05918X0.06706*%
%ADD24R,0.06706X0.05918*%
%ADD25R,0.06706X0.06706*%
%ADD26C,0.06706*%
%ADD27O,0.09068X0.04934*%
%ADD28O,0.08280X0.04540*%
%ADD29R,0.05524X0.05524*%
%ADD30C,0.05524*%
%ADD31R,0.06706X0.06706*%
%ADD32C,0.06800*%
%ADD33C,0.03200*%
%ADD34C,0.03400*%
%ADD35C,0.03800*%
%ADD36C,0.04000*%
G36*
X1328Y-184680D02*
Y-180863D01*
X9602D01*
Y-184680D01*
X1328D01*
D02*
G37*
G36*
X1335Y-155645D02*
Y-151806D01*
X9602D01*
Y-155645D01*
X1335D01*
D02*
G37*
D20*
X5469Y-168243D02*
D03*
D21*
X16000Y-173361D02*
D03*
Y-170802D02*
D03*
Y-168243D02*
D03*
Y-165684D02*
D03*
Y-163125D02*
D03*
D22*
X191150Y-188071D02*
D03*
X184850D02*
D03*
X191150Y-171929D02*
D03*
X184850D02*
D03*
D23*
X77740Y-108000D02*
D03*
X70260D02*
D03*
X77740Y-67000D02*
D03*
X70260D02*
D03*
X191740Y-142000D02*
D03*
X184260D02*
D03*
X38740Y-175025D02*
D03*
X31260D02*
D03*
X38740Y-167525D02*
D03*
X31260D02*
D03*
X191740Y-152000D02*
D03*
X184260D02*
D03*
X184000Y-162000D02*
D03*
X191480D02*
D03*
D24*
X40000Y-38760D02*
D03*
Y-46240D02*
D03*
X30000Y-38760D02*
D03*
Y-46240D02*
D03*
X40000Y-146240D02*
D03*
Y-138760D02*
D03*
X30000Y-146240D02*
D03*
Y-138760D02*
D03*
D25*
X65000Y-52008D02*
D03*
X130000Y-185000D02*
D03*
D26*
X75000Y-52008D02*
D03*
X85000D02*
D03*
X95000D02*
D03*
X105000D02*
D03*
X115000D02*
D03*
X125000D02*
D03*
X135000D02*
D03*
X52008Y-110866D02*
D03*
Y-100866D02*
D03*
Y-90866D02*
D03*
Y-80866D02*
D03*
Y-70866D02*
D03*
X120000Y-185000D02*
D03*
X110000D02*
D03*
X100000D02*
D03*
X90000D02*
D03*
X80000D02*
D03*
X70000D02*
D03*
X60000D02*
D03*
X33000Y-27000D02*
D03*
D27*
X17279Y-159483D02*
D03*
Y-177003D02*
D03*
D28*
X5469Y-151806D02*
D03*
Y-184680D02*
D03*
D29*
X187461Y-81831D02*
D03*
D30*
X192461D02*
D03*
Y-86831D02*
D03*
X187461Y-91831D02*
D03*
X192461D02*
D03*
X187461Y-96831D02*
D03*
X192461D02*
D03*
X187461Y-101831D02*
D03*
X192461D02*
D03*
X187461Y-86831D02*
D03*
D31*
X52008Y-120866D02*
D03*
D32*
X15000Y-15000D02*
D03*
X185000D02*
D03*
D33*
X47500Y-168025D02*
D03*
Y-179433D02*
D03*
X116200Y-99700D02*
D03*
X105900Y-97400D02*
D03*
D34*
X57700Y-120482D02*
D03*
X61900Y-120400D02*
D03*
X113200Y-97800D02*
D03*
X110600Y-109000D02*
D03*
X110400Y-118500D02*
D03*
X102017Y-89025D02*
D03*
X65600Y-66000D02*
D03*
X80100Y-56400D02*
D03*
X98050Y-117075D02*
D03*
X127900Y-78200D02*
D03*
X80200Y-43300D02*
D03*
X142500Y-80379D02*
D03*
X150175Y-79475D02*
D03*
X83000Y-161311D02*
D03*
X143500Y-138500D02*
D03*
X144600Y-15000D02*
D03*
X140000Y-31025D02*
D03*
X100800Y-26900D02*
D03*
X124800Y-11300D02*
D03*
X151400Y-162500D02*
D03*
X132900Y-160000D02*
D03*
X178600Y-161000D02*
D03*
X98100Y-81100D02*
D03*
X164900Y-74400D02*
D03*
X142600Y-99600D02*
D03*
X85000Y-26925D02*
D03*
X131575D02*
D03*
X110200Y-34700D02*
D03*
X97400Y-72125D02*
D03*
X92300Y-110425D02*
D03*
X124600Y-33325D02*
D03*
X135800Y-148725D02*
D03*
X133900Y-92525D02*
D03*
X143200Y-132625D02*
D03*
X150800D02*
D03*
X150100Y-150525D02*
D03*
X97700Y-98325D02*
D03*
X153700Y-123425D02*
D03*
X121600Y-123325D02*
D03*
X97400Y-108725D02*
D03*
X102800Y-78525D02*
D03*
X82000Y-103000D02*
D03*
D35*
X69600Y-126500D02*
D03*
X69500Y-130200D02*
D03*
X66500Y-77500D02*
D03*
Y-95000D02*
D03*
X80170Y-116100D02*
D03*
X83400D02*
D03*
X76840Y-116000D02*
D03*
X69700Y-60900D02*
D03*
X65500Y-61000D02*
D03*
X77000Y-90500D02*
D03*
X84000D02*
D03*
X77000Y-82000D02*
D03*
X84000Y-86000D02*
D03*
Y-82000D02*
D03*
X77000Y-86000D02*
D03*
D36*
X92500Y-131500D02*
D03*
X108500Y-174500D02*
D03*
X43500Y-116500D02*
D03*
X175000Y-74000D02*
D03*
X138000Y-67000D02*
D03*
X134100Y-80400D02*
D03*
X175100Y-61000D02*
D03*
X197000Y-126000D02*
D03*
X178000Y-154000D02*
D03*
X174500Y-174600D02*
D03*
X187575Y-44910D02*
D03*
X187500Y-49400D02*
D03*
X174900Y-116400D02*
D03*
X165200Y-116600D02*
D03*
X128000Y-72800D02*
D03*
M02*
