M48
;Layer_Color=9474304
;FILE_FORMAT=2:5
INCH,LZ
;TYPE=PLATED
T1F00S00C0.00800
T2F00S00C0.01200
T3F00S00C0.01400
T6F00S00C0.02800
T7F00S00C0.03150
T8F00S00C0.03543
;TYPE=NON_PLATED
T9F00S00C0.09606
%
T01
X00475Y-0179433
Y-0168025
X0083Y-0161311
X01329Y-016
X01358Y-0148725
X01216Y-0123325
X01104Y-01185
X01106Y-0109
X00974Y-0108725
X00923Y-0110425
X009805Y-0117075
X00977Y-0098325
X01059Y-00974
X01132Y-00978
X01162Y-00997
X0102017Y-0089025
X01028Y-0078525
X00981Y-00811
X00974Y-0072125
X00801Y-00564
X00656Y-0066
X0082Y-0103
X00619Y-01204
X00577Y-0120482
X01339Y-0092525
X01279Y-00782
X01425Y-0080379
X0150175Y-0079475
X01649Y-00744
X01426Y-00996
X01432Y-0132625
X01435Y-01385
X01508Y-0132625
X01537Y-0123425
X01501Y-0150525
X01514Y-01625
X01786Y-0161
X01446Y-0015
X014Y-0031025
X0131575Y-0026925
X01246Y-0033325
X01102Y-00347
X01008Y-00269
X0085Y-0026925
X00802Y-00433
X01248Y-00113
T02
X00695Y-01302
X00696Y-01265
X007684Y-0116
X008017Y-01161
X00834
X0084Y-00905
Y-0086
Y-0082
X0077
Y-0086
Y-00905
X00665Y-0095
Y-00775
X00655Y-0061
X00697Y-00609
T03
X00435Y-01165
X00925Y-01315
X01085Y-01745
X01341Y-00804
X0128Y-00728
X0138Y-0067
X01751Y-0061
X0175Y-0074
X01875Y-00494
X0187575Y-004491
X01749Y-01164
X01652Y-01166
X0197Y-0126
X0178Y-0154
X01745Y-01746
T06
X0187461Y-0101831
Y-0096831
X0192461
Y-0091831
Y-0086831
Y-0081831
X0187461
Y-0086831
X0192461Y-0101831
T07
X0187461Y-0091831
T08
X006Y-0185
X007
X008
X009
X01
X011
X012
X013
X0125Y-0052008
X0115
X0105
X0095
X0085
X0075
X0065
X0052008Y-0070866
Y-0080866
Y-0090866
Y-0100866
Y-0110866
Y-0120866
X0135Y-0052008
X0033Y-0027
T09
X0185Y-0015
X0015
M30
